<?xml version="1.0" encoding="utf-8"?>
<!-- Generator: Adobe Illustrator 17.1.0, SVG Export Plug-In . SVG Version: 6.00 Build 0)  -->
<!DOCTYPE svg PUBLIC "-//W3C//DTD SVG 1.1//EN" "http://www.w3.org/Graphics/SVG/1.1/DTD/svg11.dtd">
<svg version="1.1" id="レイヤー_1" xmlns="http://www.w3.org/2000/svg" xmlns:xlink="http://www.w3.org/1999/xlink" x="0px"
	 y="0px" viewBox="0 0 1024 768" enable-background="new 0 0 1024 768" xml:space="preserve">
<rect y="384" fill="#2D2D2D" width="1024" height="384"/>
<g>
	<g>
		<path fill="#231815" d="M293.2,153.7h-59.4c-6.4,0-11.1,1.2-14,3.6c-3,2.4-4.5,6.2-4.5,11.4c0,4.1,1.3,7.3,3.8,9.3
			c2.5,2.1,6.3,3.1,11.4,3.1h31.8c13.2,0,22.5,2.5,28.1,7.5c5.6,5,8.4,13.3,8.4,24.9c0,11.8-3.2,20.4-9.6,25.9
			c-6.4,5.5-16.5,8.3-30.3,8.3h-64v-20.4H255c6.8,0,11.7-1,14.5-3c2.8-2,4.2-5.3,4.2-9.9c0-4.8-1.3-8.2-3.8-10.2c-2.6-2-7-3-13.2-3
			h-28.4c-13.2,0-22.8-2.6-28.9-7.9c-6.1-5.3-9.1-13.6-9.1-24.9c0-12.1,3.2-21,9.6-26.6c6.4-5.6,16.6-8.4,30.5-8.4h62.9V153.7z"/>
		<polygon fill="#231815" points="298.5,133.4 325.5,133.4 353.7,177 382.3,133.4 410.3,133.4 366.1,197.2 366.1,247.6 342.1,247.6 
			342.1,197.2 		"/>
		<path fill="#231815" d="M511.2,153.7h-59.4c-6.4,0-11.1,1.2-14,3.6c-3,2.4-4.5,6.2-4.5,11.4c0,4.1,1.3,7.3,3.8,9.3
			c2.5,2.1,6.3,3.1,11.4,3.1h31.8c13.2,0,22.5,2.5,28.1,7.5c5.6,5,8.4,13.3,8.4,24.9c0,11.8-3.2,20.4-9.6,25.9
			c-6.4,5.5-16.5,8.3-30.3,8.3h-64v-20.4h60.2c6.8,0,11.7-1,14.5-3c2.8-2,4.2-5.3,4.2-9.9c0-4.8-1.3-8.2-3.8-10.2c-2.6-2-7-3-13.2-3
			h-28.4c-13.2,0-22.8-2.6-28.9-7.9c-6.1-5.3-9.1-13.6-9.1-24.9c0-12.1,3.2-21,9.6-26.6c6.4-5.6,16.6-8.4,30.5-8.4h62.9V153.7z"/>
		<polygon fill="#231815" points="528.7,133.4 552.8,133.4 552.8,188.2 597.8,133.4 626.6,133.4 580.7,189.2 627.1,247.6 
			596.4,247.6 552.8,190.8 552.8,247.6 528.7,247.6 		"/>
		<path fill="#231815" d="M679.6,153.3c-8.7,0-15.3,2.2-19.7,6.5c-4.4,4.4-6.9,11-7.3,20l66.5,0.1v19.9h-66.6
			c0.1,10,2.2,17.1,6.3,21.5s11.1,6.5,20.9,6.5h39.4v19.9h-40.6c-9,0-16-0.8-21.1-2.3c-5.1-1.5-9.9-4.1-14.5-7.7
			c-5.9-4.7-10.2-10.7-13.2-18.2c-2.9-7.5-4.4-16.4-4.4-26.9c0-20.2,4.4-35.1,13.1-44.7c8.8-9.6,22.3-14.4,40.7-14.4h39.9v19.9
			H679.6z"/>
		<polygon fill="#231815" points="733.2,133.4 763.6,133.4 810.4,215.5 809.2,133.4 833.8,133.4 833.8,247.6 805.9,247.6 
			756.7,161.2 757.8,247.6 733.2,247.6 		"/>
	</g>
	<g>
		<path fill="#231815" d="M374.1,112.8h-3.3L365.4,94h3.5l3.6,14.8h0.1l3.6-14.8h3.5l3.7,14.8h0.1l3.8-14.8h3.2l-5.5,18.8h-3.3
			l-3.8-14.6h-0.1L374.1,112.8z"/>
		<path fill="#231815" d="M409.2,106.9c-0.1,0.9-1,3.6-3.3,5.1c-0.9,0.6-2.1,1.3-5.1,1.3c-5.3,0-8.4-4-8.4-9.4
			c0-5.8,2.8-10.5,9-10.5c5.4,0,8.1,4.3,8.1,11h-13.8c0,3.9,1.8,6.2,5.5,6.2c3,0,4.8-2.3,4.9-3.7H409.2z M406.2,101.9
			c-0.2-2.9-1.4-5.6-5.3-5.6c-2.9,0-5.2,2.7-5.2,5.6H406.2z"/>
		<path fill="#231815" d="M435,100.3c-0.4-2.5-1.8-4-4.5-4c-3.9,0-5.2,3.7-5.2,7.1c0,3.2,0.8,7.2,5.1,7.2c2.1,0,4-1.6,4.5-4.5h3.1
			c-0.3,3-2.2,7.2-7.7,7.2c-5.3,0-8.4-4-8.4-9.4c0-5.8,2.8-10.5,9-10.5c4.9,0,6.8,3.6,7.1,6.9H435z"/>
		<path fill="#231815" d="M444.9,112.8h-3.2V94h3v3.1h0.1c1.3-2.2,2.9-3.7,5.3-3.7c0.4,0,0.6,0,0.8,0.1v3.3h-1.2c-3,0-4.8,2.3-4.8,5
			V112.8z"/>
		<path fill="#231815" d="M469.2,106.9c-0.1,0.9-1,3.6-3.3,5.1c-0.9,0.6-2.1,1.3-5.1,1.3c-5.3,0-8.4-4-8.4-9.4
			c0-5.8,2.8-10.5,9-10.5c5.4,0,8.1,4.3,8.1,11h-13.8c0,3.9,1.8,6.2,5.5,6.2c3,0,4.8-2.3,4.9-3.7H469.2z M466.2,101.9
			c-0.2-2.9-1.4-5.6-5.3-5.6c-2.9,0-5.2,2.7-5.2,5.6H466.2z"/>
		<path fill="#231815" d="M473.2,99.7c0.1-4.5,3.1-6.3,7.8-6.3c1.5,0,7,0.4,7,5.3v10.8c0,0.8,0.4,1.1,1,1.1c0.3,0,0.7-0.1,1-0.1v2.3
			c-0.5,0.1-1,0.4-1.7,0.4c-2.8,0-3.2-1.4-3.3-2.9c-1.2,1.3-3.1,3.1-6.8,3.1c-3.5,0-5.9-2.2-5.9-5.4c0-1.6,0.5-5.3,5.7-5.9l5.2-0.6
			c0.8-0.1,1.7-0.4,1.7-2.2c0-2-1.4-3.1-4.4-3.1c-3.6,0-4.1,2.2-4.3,3.6H473.2z M484.8,103.2c-0.5,0.4-1.3,0.7-5.2,1.2
			c-1.5,0.2-4,0.7-4,3.1c0,2.1,1,3.3,3.4,3.3c3,0,5.8-1.9,5.8-4.4V103.2z"/>
		<path fill="#231815" d="M497.2,96.6v12.2c0,1.5,1.3,1.5,1.9,1.5h1.1v2.5c-1.2,0.1-2.1,0.3-2.4,0.3c-3.1,0-3.8-1.8-3.8-4V96.6h-2.6
			V94h2.6v-5.3h3.2V94h3v2.6H497.2z"/>
		<path fill="#231815" d="M519.3,106.9c-0.1,0.9-1,3.6-3.3,5.1c-0.9,0.6-2.1,1.3-5.1,1.3c-5.3,0-8.4-4-8.4-9.4
			c0-5.8,2.8-10.5,9-10.5c5.4,0,8.1,4.3,8.1,11h-13.8c0,3.9,1.8,6.2,5.5,6.2c3,0,4.8-2.3,4.9-3.7H519.3z M516.3,101.9
			c-0.2-2.9-1.4-5.6-5.3-5.6c-2.9,0-5.2,2.7-5.2,5.6H516.3z"/>
		<path fill="#231815" d="M537.2,96.6v12.2c0,1.5,1.3,1.5,1.9,1.5h1.1v2.5c-1.2,0.1-2.1,0.3-2.4,0.3c-3.1,0-3.8-1.8-3.8-4V96.6h-2.6
			V94h2.6v-5.3h3.2V94h3v2.6H537.2z"/>
		<path fill="#231815" d="M558.7,112.8h-3.2v-12.3c0-2.6-0.7-4.2-3.7-4.2c-2.6,0-5.3,1.5-5.3,6.3v10.3h-3.2V87h3.2v9.5h0.1
			c0.9-1.2,2.5-3.1,5.5-3.1c2.9,0,6.6,1.2,6.6,6.6V112.8z"/>
		<path fill="#231815" d="M579.3,106.9c-0.1,0.9-1,3.6-3.3,5.1c-0.9,0.6-2.1,1.3-5.1,1.3c-5.3,0-8.4-4-8.4-9.4
			c0-5.8,2.8-10.5,9-10.5c5.4,0,8.1,4.3,8.1,11h-13.8c0,3.9,1.8,6.2,5.5,6.2c3,0,4.8-2.3,4.9-3.7H579.3z M576.3,101.9
			c-0.2-2.9-1.4-5.6-5.3-5.6c-2.9,0-5.2,2.7-5.2,5.6H576.3z"/>
		<path fill="#231815" d="M608.7,112.8h-3.2v-11.6c0-3.3-0.9-4.9-4-4.9c-1.8,0-5,1.2-5,6.3v10.3h-3.2V94h3v2.7h0.1
			c0.7-1,2.4-3.2,5.7-3.2c2.9,0,6.6,1.2,6.6,6.6V112.8z"/>
		<path fill="#231815" d="M629.4,106.9c-0.1,0.9-1,3.6-3.3,5.1c-0.9,0.6-2.1,1.3-5.1,1.3c-5.3,0-8.4-4-8.4-9.4
			c0-5.8,2.8-10.5,9-10.5c5.4,0,8.1,4.3,8.1,11h-13.8c0,3.9,1.8,6.2,5.5,6.2c3,0,4.8-2.3,4.9-3.7H629.4z M626.4,101.9
			c-0.2-2.9-1.4-5.6-5.3-5.6c-2.9,0-5.2,2.7-5.2,5.6H626.4z"/>
		<path fill="#231815" d="M648.7,112.8h-4l-4.7-7.1l-4.5,7.1h-4l6.6-9.7l-6.3-9.1h4.1l4.4,6.6l4.4-6.6h3.9l-6.4,9.1L648.7,112.8z"/>
		<path fill="#231815" d="M655.3,96.6v12.2c0,1.5,1.3,1.5,1.9,1.5h1.1v2.5c-1.2,0.1-2.1,0.3-2.4,0.3c-3.1,0-3.8-1.8-3.8-4V96.6h-2.6
			V94h2.6v-5.3h3.2V94h3v2.6H655.3z"/>
	</g>
	<g>
		<path fill="#231815" d="M249.7,270.1h16.8v2.5h-7v18.2h-2.8v-18.2h-7V270.1z"/>
		<path fill="#231815" d="M277.2,280c0-0.9-0.4-2.5-3.6-2.5c-0.8,0-3,0.3-3,2.1c0,1.2,0.8,1.5,2.7,2l2.5,0.6c3.1,0.8,4.2,1.9,4.2,4
			c0,3.1-2.6,5-5.9,5c-5.9,0-6.4-3.4-6.5-5.3h2.4c0.1,1.2,0.4,3.1,4,3.1c1.8,0,3.4-0.7,3.4-2.4c0-1.2-0.8-1.6-3-2.2l-2.9-0.7
			c-2.1-0.5-3.5-1.6-3.5-3.6c0-3.3,2.7-4.8,5.7-4.8c5.4,0,5.7,4,5.7,4.7H277.2z"/>
		<path fill="#231815" d="M292.9,290.7v-2.2l-0.1-0.1c-1.1,1.8-2.4,2.7-4.8,2.7c-2.2,0-4.9-1.1-4.9-4.7v-10.8h2.5v10
			c0,2.5,1.3,3.3,2.9,3.3c3.2,0,4.1-2.8,4.1-5v-8.3h2.5v15H292.9z"/>
		<path fill="#231815" d="M308.4,275.7h2.8c-1.8,4.9-3.5,9.8-5.4,14.7c-2.4,6.1-2.6,6.4-5.9,6.4c-0.4,0-0.7-0.1-1.1-0.2v-2.3
			c0.3,0.1,0.8,0.3,1.5,0.3c1.3,0,1.5-0.4,2.7-3.5l-5.6-15.4h2.9l4,12.2h0.1L308.4,275.7z"/>
		<path fill="#231815" d="M313.3,280.2c0.1-3.6,2.5-5,6.2-5c1.2,0,5.6,0.3,5.6,4.2v8.6c0,0.6,0.3,0.9,0.8,0.9c0.2,0,0.5-0.1,0.8-0.1
			v1.8c-0.4,0.1-0.8,0.3-1.4,0.3c-2.2,0-2.6-1.1-2.7-2.3c-1,1.1-2.5,2.4-5.4,2.4c-2.8,0-4.7-1.8-4.7-4.3c0-1.3,0.4-4.2,4.6-4.7
			l4.2-0.5c0.6-0.1,1.3-0.3,1.3-1.8c0-1.6-1.1-2.4-3.5-2.4c-2.9,0-3.3,1.8-3.4,2.9H313.3z M322.6,283c-0.4,0.3-1,0.5-4.2,0.9
			c-1.2,0.2-3.2,0.5-3.2,2.4c0,1.6,0.8,2.6,2.7,2.6c2.4,0,4.7-1.5,4.7-3.5V283z"/>
		<path fill="#231815" d="M329.4,275.7h2.4v2.1h0.1c0.5-0.8,1.8-2.6,4.5-2.6c2.7,0,3.6,1.6,4,2.4c1.3-1.4,2.3-2.4,4.6-2.4
			c1.6,0,4.7,0.8,4.7,5.1v10.4h-2.5V281c0-2.1-0.6-3.5-2.8-3.5c-2.1,0-3.5,2-3.5,4v9.2h-2.5v-10.4c0-1.3-0.5-2.8-2.4-2.8
			c-1.4,0-4,0.9-4,5v8.2h-2.5V275.7z"/>
		<path fill="#231815" d="M353.2,280.2c0.1-3.6,2.5-5,6.2-5c1.2,0,5.6,0.3,5.6,4.2v8.6c0,0.6,0.3,0.9,0.8,0.9c0.2,0,0.5-0.1,0.8-0.1
			v1.8c-0.4,0.1-0.8,0.3-1.4,0.3c-2.2,0-2.6-1.1-2.7-2.3c-1,1.1-2.5,2.4-5.4,2.4c-2.8,0-4.7-1.8-4.7-4.3c0-1.3,0.4-4.2,4.6-4.7
			l4.2-0.5c0.6-0.1,1.3-0.3,1.3-1.8c0-1.6-1.1-2.4-3.5-2.4c-2.9,0-3.3,1.8-3.4,2.9H353.2z M362.5,283c-0.4,0.3-1,0.5-4.2,0.9
			c-1.2,0.2-3.2,0.5-3.2,2.4c0,1.6,0.8,2.6,2.7,2.6c2.4,0,4.7-1.5,4.7-3.5V283z"/>
		<path fill="#231815" d="M391.3,270.1h2.7v20.6h-3.1L380.4,274h-0.1v16.7h-2.7v-20.6h3.3l10.3,16.7h0.1V270.1z"/>
		<path fill="#231815" d="M398,280.2c0.1-3.6,2.5-5,6.2-5c1.2,0,5.6,0.3,5.6,4.2v8.6c0,0.6,0.3,0.9,0.8,0.9c0.2,0,0.5-0.1,0.8-0.1
			v1.8c-0.4,0.1-0.8,0.3-1.4,0.3c-2.2,0-2.6-1.1-2.7-2.3c-1,1.1-2.5,2.4-5.4,2.4c-2.8,0-4.7-1.8-4.7-4.3c0-1.3,0.4-4.2,4.6-4.7
			l4.2-0.5c0.6-0.1,1.3-0.3,1.3-1.8c0-1.6-1.1-2.4-3.5-2.4c-2.9,0-3.3,1.8-3.4,2.9H398z M407.2,283c-0.4,0.3-1,0.5-4.2,0.9
			c-1.2,0.2-3.2,0.5-3.2,2.4c0,1.6,0.8,2.6,2.7,2.6c2.4,0,4.7-1.5,4.7-3.5V283z"/>
		<path fill="#231815" d="M417.1,277.8v9.8c0,1.2,1,1.2,1.5,1.2h0.9v2c-0.9,0.1-1.6,0.2-1.9,0.2c-2.5,0-3-1.4-3-3.2v-9.9h-2v-2.1h2
			v-4.2h2.5v4.2h2.4v2.1H417.1z"/>
		<path fill="#231815" d="M422.1,272.9v-2.9h2.5v2.9H422.1z M424.6,290.7h-2.5v-15h2.5V290.7z"/>
		<path fill="#231815" d="M434.5,275.2c4.8,0,7,4.1,7,7.9c0,3.9-2.2,7.9-7,7.9c-4.8,0-7-4.1-7-7.9
			C427.5,279.3,429.7,275.2,434.5,275.2z M434.5,288.9c3.6,0,4.4-3.7,4.4-5.7c0-2-0.7-5.7-4.4-5.7c-3.6,0-4.4,3.7-4.4,5.7
			C430.1,285.2,430.9,288.9,434.5,288.9z"/>
		<path fill="#231815" d="M456.6,290.7h-2.5v-9.3c0-2.6-0.7-3.9-3.2-3.9c-1.4,0-4,0.9-4,5v8.2h-2.5v-15h2.4v2.1h0.1
			c0.5-0.8,2-2.6,4.5-2.6c2.3,0,5.3,0.9,5.3,5.2V290.7z"/>
		<path fill="#231815" d="M460.3,280.2c0.1-3.6,2.5-5,6.2-5c1.2,0,5.6,0.3,5.6,4.2v8.6c0,0.6,0.3,0.9,0.8,0.9c0.2,0,0.5-0.1,0.8-0.1
			v1.8c-0.4,0.1-0.8,0.3-1.4,0.3c-2.2,0-2.6-1.1-2.7-2.3c-1,1.1-2.5,2.4-5.4,2.4c-2.8,0-4.7-1.8-4.7-4.3c0-1.3,0.4-4.2,4.6-4.7
			l4.2-0.5c0.6-0.1,1.3-0.3,1.3-1.8c0-1.6-1.1-2.4-3.5-2.4c-2.9,0-3.3,1.8-3.4,2.9H460.3z M469.5,283c-0.4,0.3-1,0.5-4.2,0.9
			c-1.2,0.2-3.2,0.5-3.2,2.4c0,1.6,0.8,2.6,2.7,2.6c2.4,0,4.7-1.5,4.7-3.5V283z"/>
		<path fill="#231815" d="M478.9,290.7h-2.5v-20.6h2.5V290.7z"/>
		<path fill="#231815" d="M505.5,276.3c-0.8-3.6-3.8-4.3-5.8-4.3c-3.7,0-6.8,2.8-6.8,8.2c0,4.9,1.7,8.6,6.8,8.6
			c1.8,0,4.9-0.9,5.9-5.7h2.7c-1.1,7.8-7.5,8.1-9,8.1c-4.7,0-9.3-3-9.3-11c0-6.3,3.6-10.7,9.6-10.7c5.3,0,8.1,3.3,8.5,6.8H505.5z"/>
		<path fill="#231815" d="M517.6,275.2c4.8,0,7,4.1,7,7.9c0,3.9-2.2,7.9-7,7.9c-4.8,0-7-4.1-7-7.9
			C510.6,279.3,512.8,275.2,517.6,275.2z M517.6,288.9c3.6,0,4.4-3.7,4.4-5.7c0-2-0.7-5.7-4.4-5.7s-4.4,3.7-4.4,5.7
			C513.2,285.2,513.9,288.9,517.6,288.9z"/>
		<path fill="#231815" d="M530,290.7h-2.5v-20.6h2.5V290.7z"/>
		<path fill="#231815" d="M536.4,290.7h-2.5v-20.6h2.5V290.7z"/>
		<path fill="#231815" d="M552.9,286c-0.1,0.7-0.8,2.8-2.7,4.1c-0.7,0.5-1.7,1-4.1,1c-4.2,0-6.7-3.2-6.7-7.5c0-4.7,2.2-8.4,7.2-8.4
			c4.3,0,6.5,3.4,6.5,8.8h-11c0,3.1,1.5,4.9,4.4,4.9c2.4,0,3.8-1.8,3.9-3H552.9z M550.5,282c-0.1-2.3-1.1-4.5-4.2-4.5
			c-2.3,0-4.2,2.2-4.2,4.5H550.5z"/>
		<path fill="#231815" d="M568.6,289.5c0,2.2,0,7.6-7,7.6c-1.8,0-5.3-0.5-5.7-4.5h2.5c0.5,2.4,2.8,2.4,3.4,2.4
			c4.4,0,4.3-3.5,4.3-5.3V289H566v0.1c-0.7,1.1-2,2-4,2c-5.1,0-6.6-4.8-6.6-8.4c0-4.2,2.3-7.5,6.3-7.5c2.7,0,3.9,1.7,4.5,2.6h0.1
			v-2.1h2.4V289.5z M562.1,288.9c1.6,0,4.1-1.1,4.1-5.1c0-2.4-0.4-6.4-4.1-6.4c-3.9,0-4.1,3.7-4.1,5.6
			C558,286.4,559.3,288.9,562.1,288.9z"/>
		<path fill="#231815" d="M584.9,286c-0.1,0.7-0.8,2.8-2.7,4.1c-0.7,0.5-1.7,1-4.1,1c-4.2,0-6.7-3.2-6.7-7.5c0-4.7,2.2-8.4,7.2-8.4
			c4.3,0,6.5,3.4,6.5,8.8h-11c0,3.1,1.5,4.9,4.4,4.9c2.4,0,3.8-1.8,3.9-3H584.9z M582.5,282c-0.1-2.3-1.1-4.5-4.2-4.5
			c-2.3,0-4.2,2.2-4.2,4.5H582.5z"/>
		<path fill="#231815" d="M602.2,275.2c4.8,0,7,4.1,7,7.9c0,3.9-2.2,7.9-7,7.9c-4.8,0-7-4.1-7-7.9
			C595.2,279.3,597.4,275.2,602.2,275.2z M602.2,288.9c3.6,0,4.4-3.7,4.4-5.7c0-2-0.7-5.7-4.4-5.7c-3.6,0-4.4,3.7-4.4,5.7
			C597.8,285.2,598.6,288.9,602.2,288.9z"/>
		<path fill="#231815" d="M615.2,277.8v12.9h-2.5v-12.9h-2.1v-2.1h2.1v-2.6c0-2.3,1.4-3.3,3.9-3.3c0.4,0,0.7,0,1.1,0.1v2.3
			c-0.3,0-0.7-0.1-1-0.1c-1.1,0-1.5,0.5-1.5,1.8v1.9h2.5v2.1H615.2z"/>
		<path fill="#231815" d="M626.6,270.1h16.8v2.5h-7v18.2h-2.8v-18.2h-7V270.1z"/>
		<path fill="#231815" d="M658.4,286c-0.1,0.7-0.8,2.8-2.7,4.1c-0.7,0.5-1.7,1-4.1,1c-4.2,0-6.7-3.2-6.7-7.5c0-4.7,2.2-8.4,7.2-8.4
			c4.3,0,6.5,3.4,6.5,8.8h-11c0,3.1,1.5,4.9,4.4,4.9c2.4,0,3.8-1.8,3.9-3H658.4z M656,282c-0.1-2.3-1.1-4.5-4.2-4.5
			c-2.3,0-4.2,2.2-4.2,4.5H656z"/>
		<path fill="#231815" d="M671,280.7c-0.3-2-1.4-3.2-3.6-3.2c-3.1,0-4.1,3-4.1,5.7c0,2.6,0.6,5.8,4.1,5.8c1.7,0,3.2-1.3,3.6-3.6h2.4
			c-0.3,2.4-1.7,5.7-6.1,5.7c-4.2,0-6.7-3.2-6.7-7.5c0-4.7,2.2-8.4,7.2-8.4c3.9,0,5.4,2.9,5.6,5.5H671z"/>
		<path fill="#231815" d="M688.2,290.7h-2.5v-9.8c0-2-0.6-3.4-3-3.4c-2.1,0-4.2,1.2-4.2,5v8.2H676v-20.6h2.5v7.6h0.1
			c0.7-0.9,2-2.4,4.4-2.4c2.3,0,5.3,0.9,5.3,5.2V290.7z"/>
		<path fill="#231815" d="M704.2,290.7h-2.5v-9.3c0-2.6-0.7-3.9-3.2-3.9c-1.4,0-4,0.9-4,5v8.2h-2.5v-15h2.4v2.1h0.1
			c0.5-0.8,2-2.6,4.5-2.6c2.3,0,5.3,0.9,5.3,5.2V290.7z"/>
		<path fill="#231815" d="M714,275.2c4.8,0,7,4.1,7,7.9c0,3.9-2.2,7.9-7,7.9c-4.8,0-7-4.1-7-7.9C707,279.3,709.2,275.2,714,275.2z
			 M714,288.9c3.6,0,4.4-3.7,4.4-5.7c0-2-0.7-5.7-4.4-5.7c-3.6,0-4.4,3.7-4.4,5.7C709.7,285.2,710.4,288.9,714,288.9z"/>
		<path fill="#231815" d="M726.5,290.7h-2.5v-20.6h2.5V290.7z"/>
		<path fill="#231815" d="M736.4,275.2c4.8,0,7,4.1,7,7.9c0,3.9-2.2,7.9-7,7.9c-4.8,0-7-4.1-7-7.9
			C729.4,279.3,731.6,275.2,736.4,275.2z M736.4,288.9c3.6,0,4.4-3.7,4.4-5.7c0-2-0.7-5.7-4.4-5.7c-3.6,0-4.4,3.7-4.4,5.7
			C732,285.2,732.8,288.9,736.4,288.9z"/>
		<path fill="#231815" d="M758.7,289.5c0,2.2,0,7.6-7,7.6c-1.8,0-5.3-0.5-5.7-4.5h2.5c0.5,2.4,2.8,2.4,3.4,2.4
			c4.4,0,4.3-3.5,4.3-5.3V289h-0.1v0.1c-0.7,1.1-2,2-4,2c-5.1,0-6.6-4.8-6.6-8.4c0-4.2,2.3-7.5,6.3-7.5c2.7,0,3.9,1.7,4.5,2.6h0.1
			v-2.1h2.4V289.5z M752.2,288.9c1.6,0,4.1-1.1,4.1-5.1c0-2.4-0.4-6.4-4.1-6.4c-3.9,0-4.1,3.7-4.1,5.6
			C748.1,286.4,749.4,288.9,752.2,288.9z"/>
		<path fill="#231815" d="M771.6,275.7h2.8c-1.8,4.9-3.5,9.8-5.4,14.7c-2.4,6.1-2.6,6.4-5.9,6.4c-0.4,0-0.7-0.1-1.1-0.2v-2.3
			c0.3,0.1,0.8,0.3,1.5,0.3c1.3,0,1.5-0.4,2.7-3.5l-5.6-15.4h2.9l4,12.2h0.1L771.6,275.7z"/>
	</g>
</g>
<g>
	<g>
		<path fill="#FFFFFF" d="M293.2,537.7h-59.4c-6.4,0-11.1,1.2-14,3.6c-3,2.4-4.5,6.2-4.5,11.4c0,4.1,1.3,7.3,3.8,9.3
			c2.5,2.1,6.3,3.1,11.4,3.1h31.8c13.2,0,22.5,2.5,28.1,7.5c5.6,5,8.4,13.3,8.4,24.9c0,11.8-3.2,20.4-9.6,25.9
			c-6.4,5.5-16.5,8.3-30.3,8.3h-64v-20.4H255c6.8,0,11.7-1,14.5-3s4.2-5.3,4.2-9.9c0-4.8-1.3-8.2-3.8-10.2c-2.6-2-7-3-13.2-3h-28.4
			c-13.2,0-22.8-2.6-28.9-7.9c-6.1-5.3-9.1-13.6-9.1-24.9c0-12.1,3.2-21,9.6-26.6c6.4-5.6,16.6-8.4,30.5-8.4h62.9V537.7z"/>
		<polygon fill="#FFFFFF" points="298.5,517.4 325.5,517.4 353.7,561 382.3,517.4 410.3,517.4 366.1,581.2 366.1,631.6 342.1,631.6 
			342.1,581.2 		"/>
		<path fill="#FFFFFF" d="M511.2,537.7h-59.4c-6.4,0-11.1,1.2-14,3.6c-3,2.4-4.5,6.2-4.5,11.4c0,4.1,1.3,7.3,3.8,9.3
			c2.5,2.1,6.3,3.1,11.4,3.1h31.8c13.2,0,22.5,2.5,28.1,7.5c5.6,5,8.4,13.3,8.4,24.9c0,11.8-3.2,20.4-9.6,25.9
			c-6.4,5.5-16.5,8.3-30.3,8.3h-64v-20.4h60.2c6.8,0,11.7-1,14.5-3c2.8-2,4.2-5.3,4.2-9.9c0-4.8-1.3-8.2-3.8-10.2c-2.6-2-7-3-13.2-3
			h-28.4c-13.2,0-22.8-2.6-28.9-7.9c-6.1-5.3-9.1-13.6-9.1-24.9c0-12.1,3.2-21,9.6-26.6c6.4-5.6,16.6-8.4,30.5-8.4h62.9V537.7z"/>
		<polygon fill="#FFFFFF" points="528.7,517.4 552.8,517.4 552.8,572.2 597.8,517.4 626.6,517.4 580.7,573.2 627.1,631.6 
			596.4,631.6 552.8,574.8 552.8,631.6 528.7,631.6 		"/>
		<path fill="#FFFFFF" d="M679.6,537.3c-8.7,0-15.3,2.2-19.7,6.5c-4.4,4.4-6.9,11-7.3,20l66.5,0.1v19.9h-66.6
			c0.1,10,2.2,17.1,6.3,21.5s11.1,6.5,20.9,6.5h39.4v19.9h-40.6c-9,0-16-0.8-21.1-2.3c-5.1-1.5-9.9-4.1-14.5-7.7
			c-5.9-4.7-10.2-10.7-13.2-18.2c-2.9-7.5-4.4-16.4-4.4-26.9c0-20.2,4.4-35.1,13.1-44.7c8.8-9.6,22.3-14.4,40.7-14.4h39.9v19.9
			H679.6z"/>
		<polygon fill="#FFFFFF" points="733.2,517.4 763.6,517.4 810.4,599.5 809.2,517.4 833.8,517.4 833.8,631.6 805.9,631.6 
			756.7,545.2 757.8,631.6 733.2,631.6 		"/>
	</g>
	<g>
		<path fill="#FFFFFF" d="M374.1,496.8h-3.3l-5.4-18.8h3.5l3.6,14.8h0.1l3.6-14.8h3.5l3.7,14.8h0.1l3.8-14.8h3.2l-5.5,18.8h-3.3
			l-3.8-14.6h-0.1L374.1,496.8z"/>
		<path fill="#FFFFFF" d="M409.2,490.9c-0.1,0.9-1,3.6-3.3,5.1c-0.9,0.6-2.1,1.3-5.1,1.3c-5.3,0-8.4-4-8.4-9.4
			c0-5.8,2.8-10.5,9-10.5c5.4,0,8.1,4.3,8.1,11h-13.8c0,3.9,1.8,6.2,5.5,6.2c3,0,4.8-2.3,4.9-3.7H409.2z M406.2,485.9
			c-0.2-2.9-1.4-5.6-5.3-5.6c-2.9,0-5.2,2.7-5.2,5.6H406.2z"/>
		<path fill="#FFFFFF" d="M435,484.3c-0.4-2.5-1.8-4-4.5-4c-3.9,0-5.2,3.7-5.2,7.1c0,3.2,0.8,7.2,5.1,7.2c2.1,0,4-1.6,4.5-4.5h3.1
			c-0.3,3-2.2,7.2-7.7,7.2c-5.3,0-8.4-4-8.4-9.4c0-5.8,2.8-10.5,9-10.5c4.9,0,6.8,3.6,7.1,6.9H435z"/>
		<path fill="#FFFFFF" d="M444.9,496.8h-3.2V478h3v3.1h0.1c1.3-2.2,2.9-3.7,5.3-3.7c0.4,0,0.6,0,0.8,0.1v3.3h-1.2
			c-3,0-4.8,2.3-4.8,5V496.8z"/>
		<path fill="#FFFFFF" d="M469.2,490.9c-0.1,0.9-1,3.6-3.3,5.1c-0.9,0.6-2.1,1.3-5.1,1.3c-5.3,0-8.4-4-8.4-9.4
			c0-5.8,2.8-10.5,9-10.5c5.4,0,8.1,4.3,8.1,11h-13.8c0,3.9,1.8,6.2,5.5,6.2c3,0,4.8-2.3,4.9-3.7H469.2z M466.2,485.9
			c-0.2-2.9-1.4-5.6-5.3-5.6c-2.9,0-5.2,2.7-5.2,5.6H466.2z"/>
		<path fill="#FFFFFF" d="M473.2,483.7c0.1-4.5,3.1-6.3,7.8-6.3c1.5,0,7,0.4,7,5.3v10.8c0,0.8,0.4,1.1,1,1.1c0.3,0,0.7-0.1,1-0.1
			v2.3c-0.5,0.1-1,0.4-1.7,0.4c-2.8,0-3.2-1.4-3.3-2.9c-1.2,1.3-3.1,3.1-6.8,3.1c-3.5,0-5.9-2.2-5.9-5.4c0-1.6,0.5-5.3,5.7-5.9
			l5.2-0.6c0.8-0.1,1.7-0.4,1.7-2.2c0-2-1.4-3.1-4.4-3.1c-3.6,0-4.1,2.2-4.3,3.6H473.2z M484.8,487.2c-0.5,0.4-1.3,0.7-5.2,1.2
			c-1.5,0.2-4,0.7-4,3.1c0,2.1,1,3.3,3.4,3.3c3,0,5.8-1.9,5.8-4.4V487.2z"/>
		<path fill="#FFFFFF" d="M497.2,480.6v12.2c0,1.5,1.3,1.5,1.9,1.5h1.1v2.5c-1.2,0.1-2.1,0.3-2.4,0.3c-3.1,0-3.8-1.8-3.8-4v-12.4
			h-2.6V478h2.6v-5.3h3.2v5.3h3v2.6H497.2z"/>
		<path fill="#FFFFFF" d="M519.3,490.9c-0.1,0.9-1,3.6-3.3,5.1c-0.9,0.6-2.1,1.3-5.1,1.3c-5.3,0-8.4-4-8.4-9.4
			c0-5.8,2.8-10.5,9-10.5c5.4,0,8.1,4.3,8.1,11h-13.8c0,3.9,1.8,6.2,5.5,6.2c3,0,4.8-2.3,4.9-3.7H519.3z M516.3,485.9
			c-0.2-2.9-1.4-5.6-5.3-5.6c-2.9,0-5.2,2.7-5.2,5.6H516.3z"/>
		<path fill="#FFFFFF" d="M537.2,480.6v12.2c0,1.5,1.3,1.5,1.9,1.5h1.1v2.5c-1.2,0.1-2.1,0.3-2.4,0.3c-3.1,0-3.8-1.8-3.8-4v-12.4
			h-2.6V478h2.6v-5.3h3.2v5.3h3v2.6H537.2z"/>
		<path fill="#FFFFFF" d="M558.7,496.8h-3.2v-12.3c0-2.6-0.7-4.2-3.7-4.2c-2.6,0-5.3,1.5-5.3,6.3v10.3h-3.2V471h3.2v9.5h0.1
			c0.9-1.2,2.5-3.1,5.5-3.1c2.9,0,6.6,1.2,6.6,6.6V496.8z"/>
		<path fill="#FFFFFF" d="M579.3,490.9c-0.1,0.9-1,3.6-3.3,5.1c-0.9,0.6-2.1,1.3-5.1,1.3c-5.3,0-8.4-4-8.4-9.4
			c0-5.8,2.8-10.5,9-10.5c5.4,0,8.1,4.3,8.1,11h-13.8c0,3.9,1.8,6.2,5.5,6.2c3,0,4.8-2.3,4.9-3.7H579.3z M576.3,485.9
			c-0.2-2.9-1.4-5.6-5.3-5.6c-2.9,0-5.2,2.7-5.2,5.6H576.3z"/>
		<path fill="#FFFFFF" d="M608.7,496.8h-3.2v-11.6c0-3.3-0.9-4.9-4-4.9c-1.8,0-5,1.2-5,6.3v10.3h-3.2V478h3v2.7h0.1
			c0.7-1,2.4-3.2,5.7-3.2c2.9,0,6.6,1.2,6.6,6.6V496.8z"/>
		<path fill="#FFFFFF" d="M629.4,490.9c-0.1,0.9-1,3.6-3.3,5.1c-0.9,0.6-2.1,1.3-5.1,1.3c-5.3,0-8.4-4-8.4-9.4
			c0-5.8,2.8-10.5,9-10.5c5.4,0,8.1,4.3,8.1,11h-13.8c0,3.9,1.8,6.2,5.5,6.2c3,0,4.8-2.3,4.9-3.7H629.4z M626.4,485.9
			c-0.2-2.9-1.4-5.6-5.3-5.6c-2.9,0-5.2,2.7-5.2,5.6H626.4z"/>
		<path fill="#FFFFFF" d="M648.7,496.8h-4l-4.7-7.1l-4.5,7.1h-4l6.6-9.7l-6.3-9.1h4.1l4.4,6.6l4.4-6.6h3.9l-6.4,9.1L648.7,496.8z"/>
		<path fill="#FFFFFF" d="M655.3,480.6v12.2c0,1.5,1.3,1.5,1.9,1.5h1.1v2.5c-1.2,0.1-2.1,0.3-2.4,0.3c-3.1,0-3.8-1.8-3.8-4v-12.4
			h-2.6V478h2.6v-5.3h3.2v5.3h3v2.6H655.3z"/>
	</g>
	<g>
		<path fill="#FFFFFF" d="M249.7,654.1h16.8v2.5h-7v18.2h-2.8v-18.2h-7V654.1z"/>
		<path fill="#FFFFFF" d="M277.2,664c0-0.9-0.4-2.5-3.6-2.5c-0.8,0-3,0.3-3,2.1c0,1.2,0.8,1.5,2.7,2l2.5,0.6c3.1,0.8,4.2,1.9,4.2,4
			c0,3.1-2.6,5-5.9,5c-5.9,0-6.4-3.4-6.5-5.3h2.4c0.1,1.2,0.4,3.1,4,3.1c1.8,0,3.4-0.7,3.4-2.4c0-1.2-0.8-1.6-3-2.2l-2.9-0.7
			c-2.1-0.5-3.5-1.6-3.5-3.6c0-3.3,2.7-4.8,5.7-4.8c5.4,0,5.7,4,5.7,4.7H277.2z"/>
		<path fill="#FFFFFF" d="M292.9,674.7v-2.2l-0.1-0.1c-1.1,1.8-2.4,2.7-4.8,2.7c-2.2,0-4.9-1.1-4.9-4.7v-10.8h2.5v10
			c0,2.5,1.3,3.3,2.9,3.3c3.2,0,4.1-2.8,4.1-5v-8.3h2.5v15H292.9z"/>
		<path fill="#FFFFFF" d="M308.4,659.7h2.8c-1.8,4.9-3.5,9.8-5.4,14.7c-2.4,6.1-2.6,6.4-5.9,6.4c-0.4,0-0.7-0.1-1.1-0.2v-2.3
			c0.3,0.1,0.8,0.3,1.5,0.3c1.3,0,1.5-0.4,2.7-3.5l-5.6-15.4h2.9l4,12.2h0.1L308.4,659.7z"/>
		<path fill="#FFFFFF" d="M313.3,664.2c0.1-3.6,2.5-5,6.2-5c1.2,0,5.6,0.3,5.6,4.2v8.6c0,0.6,0.3,0.9,0.8,0.9c0.2,0,0.5-0.1,0.8-0.1
			v1.8c-0.4,0.1-0.8,0.3-1.4,0.3c-2.2,0-2.6-1.1-2.7-2.3c-1,1.1-2.5,2.4-5.4,2.4c-2.8,0-4.7-1.8-4.7-4.3c0-1.3,0.4-4.2,4.6-4.7
			l4.2-0.5c0.6-0.1,1.3-0.3,1.3-1.8c0-1.6-1.1-2.4-3.5-2.4c-2.9,0-3.3,1.8-3.4,2.9H313.3z M322.6,667c-0.4,0.3-1,0.5-4.2,0.9
			c-1.2,0.2-3.2,0.5-3.2,2.4c0,1.6,0.8,2.6,2.7,2.6c2.4,0,4.7-1.5,4.7-3.5V667z"/>
		<path fill="#FFFFFF" d="M329.4,659.7h2.4v2.1h0.1c0.5-0.8,1.8-2.6,4.5-2.6c2.7,0,3.6,1.6,4,2.4c1.3-1.4,2.3-2.4,4.6-2.4
			c1.6,0,4.7,0.8,4.7,5.1v10.4h-2.5V665c0-2.1-0.6-3.5-2.8-3.5c-2.1,0-3.5,2-3.5,4v9.2h-2.5v-10.4c0-1.3-0.5-2.8-2.4-2.8
			c-1.4,0-4,0.9-4,5v8.2h-2.5V659.7z"/>
		<path fill="#FFFFFF" d="M353.2,664.2c0.1-3.6,2.5-5,6.2-5c1.2,0,5.6,0.3,5.6,4.2v8.6c0,0.6,0.3,0.9,0.8,0.9c0.2,0,0.5-0.1,0.8-0.1
			v1.8c-0.4,0.1-0.8,0.3-1.4,0.3c-2.2,0-2.6-1.1-2.7-2.3c-1,1.1-2.5,2.4-5.4,2.4c-2.8,0-4.7-1.8-4.7-4.3c0-1.3,0.4-4.2,4.6-4.7
			l4.2-0.5c0.6-0.1,1.3-0.3,1.3-1.8c0-1.6-1.1-2.4-3.5-2.4c-2.9,0-3.3,1.8-3.4,2.9H353.2z M362.5,667c-0.4,0.3-1,0.5-4.2,0.9
			c-1.2,0.2-3.2,0.5-3.2,2.4c0,1.6,0.8,2.6,2.7,2.6c2.4,0,4.7-1.5,4.7-3.5V667z"/>
		<path fill="#FFFFFF" d="M391.3,654.1h2.7v20.6h-3.1L380.4,658h-0.1v16.7h-2.7v-20.6h3.3l10.3,16.7h0.1V654.1z"/>
		<path fill="#FFFFFF" d="M398,664.2c0.1-3.6,2.5-5,6.2-5c1.2,0,5.6,0.3,5.6,4.2v8.6c0,0.6,0.3,0.9,0.8,0.9c0.2,0,0.5-0.1,0.8-0.1
			v1.8c-0.4,0.1-0.8,0.3-1.4,0.3c-2.2,0-2.6-1.1-2.7-2.3c-1,1.1-2.5,2.4-5.4,2.4c-2.8,0-4.7-1.8-4.7-4.3c0-1.3,0.4-4.2,4.6-4.7
			l4.2-0.5c0.6-0.1,1.3-0.3,1.3-1.8c0-1.6-1.1-2.4-3.5-2.4c-2.9,0-3.3,1.8-3.4,2.9H398z M407.2,667c-0.4,0.3-1,0.5-4.2,0.9
			c-1.2,0.2-3.2,0.5-3.2,2.4c0,1.6,0.8,2.6,2.7,2.6c2.4,0,4.7-1.5,4.7-3.5V667z"/>
		<path fill="#FFFFFF" d="M417.1,661.8v9.8c0,1.2,1,1.2,1.5,1.2h0.9v2c-0.9,0.1-1.6,0.2-1.9,0.2c-2.5,0-3-1.4-3-3.2v-9.9h-2v-2.1h2
			v-4.2h2.5v4.2h2.4v2.1H417.1z"/>
		<path fill="#FFFFFF" d="M422.1,656.9v-2.9h2.5v2.9H422.1z M424.6,674.7h-2.5v-15h2.5V674.7z"/>
		<path fill="#FFFFFF" d="M434.5,659.2c4.8,0,7,4.1,7,7.9c0,3.9-2.2,7.9-7,7.9c-4.8,0-7-4.1-7-7.9
			C427.5,663.3,429.7,659.2,434.5,659.2z M434.5,672.9c3.6,0,4.4-3.7,4.4-5.7c0-2-0.7-5.7-4.4-5.7c-3.6,0-4.4,3.7-4.4,5.7
			C430.1,669.2,430.9,672.9,434.5,672.9z"/>
		<path fill="#FFFFFF" d="M456.6,674.7h-2.5v-9.3c0-2.6-0.7-3.9-3.2-3.9c-1.4,0-4,0.9-4,5v8.2h-2.5v-15h2.4v2.1h0.1
			c0.5-0.8,2-2.6,4.5-2.6c2.3,0,5.3,0.9,5.3,5.2V674.7z"/>
		<path fill="#FFFFFF" d="M460.3,664.2c0.1-3.6,2.5-5,6.2-5c1.2,0,5.6,0.3,5.6,4.2v8.6c0,0.6,0.3,0.9,0.8,0.9c0.2,0,0.5-0.1,0.8-0.1
			v1.8c-0.4,0.1-0.8,0.3-1.4,0.3c-2.2,0-2.6-1.1-2.7-2.3c-1,1.1-2.5,2.4-5.4,2.4c-2.8,0-4.7-1.8-4.7-4.3c0-1.3,0.4-4.2,4.6-4.7
			l4.2-0.5c0.6-0.1,1.3-0.3,1.3-1.8c0-1.6-1.1-2.4-3.5-2.4c-2.9,0-3.3,1.8-3.4,2.9H460.3z M469.5,667c-0.4,0.3-1,0.5-4.2,0.9
			c-1.2,0.2-3.2,0.5-3.2,2.4c0,1.6,0.8,2.6,2.7,2.6c2.4,0,4.7-1.5,4.7-3.5V667z"/>
		<path fill="#FFFFFF" d="M478.9,674.7h-2.5v-20.6h2.5V674.7z"/>
		<path fill="#FFFFFF" d="M505.5,660.3c-0.8-3.6-3.8-4.3-5.8-4.3c-3.7,0-6.8,2.8-6.8,8.2c0,4.9,1.7,8.6,6.8,8.6
			c1.8,0,4.9-0.9,5.9-5.7h2.7c-1.1,7.8-7.5,8.1-9,8.1c-4.7,0-9.3-3-9.3-11c0-6.3,3.6-10.7,9.6-10.7c5.3,0,8.1,3.3,8.5,6.8H505.5z"/>
		<path fill="#FFFFFF" d="M517.6,659.2c4.8,0,7,4.1,7,7.9c0,3.9-2.2,7.9-7,7.9c-4.8,0-7-4.1-7-7.9
			C510.6,663.3,512.8,659.2,517.6,659.2z M517.6,672.9c3.6,0,4.4-3.7,4.4-5.7c0-2-0.7-5.7-4.4-5.7s-4.4,3.7-4.4,5.7
			C513.2,669.2,513.9,672.9,517.6,672.9z"/>
		<path fill="#FFFFFF" d="M530,674.7h-2.5v-20.6h2.5V674.7z"/>
		<path fill="#FFFFFF" d="M536.4,674.7h-2.5v-20.6h2.5V674.7z"/>
		<path fill="#FFFFFF" d="M552.9,670c-0.1,0.7-0.8,2.8-2.7,4.1c-0.7,0.5-1.7,1-4.1,1c-4.2,0-6.7-3.2-6.7-7.5c0-4.7,2.2-8.4,7.2-8.4
			c4.3,0,6.5,3.4,6.5,8.8h-11c0,3.1,1.5,4.9,4.4,4.9c2.4,0,3.8-1.8,3.9-3H552.9z M550.5,666c-0.1-2.3-1.1-4.5-4.2-4.5
			c-2.3,0-4.2,2.2-4.2,4.5H550.5z"/>
		<path fill="#FFFFFF" d="M568.6,673.5c0,2.2,0,7.6-7,7.6c-1.8,0-5.3-0.5-5.7-4.5h2.5c0.5,2.4,2.8,2.4,3.4,2.4
			c4.4,0,4.3-3.5,4.3-5.3V673H566v0.1c-0.7,1.1-2,2-4,2c-5.1,0-6.6-4.8-6.6-8.4c0-4.2,2.3-7.5,6.3-7.5c2.7,0,3.9,1.7,4.5,2.6h0.1
			v-2.1h2.4V673.5z M562.1,672.9c1.6,0,4.1-1.1,4.1-5.1c0-2.4-0.4-6.4-4.1-6.4c-3.9,0-4.1,3.7-4.1,5.6
			C558,670.4,559.3,672.9,562.1,672.9z"/>
		<path fill="#FFFFFF" d="M584.9,670c-0.1,0.7-0.8,2.8-2.7,4.1c-0.7,0.5-1.7,1-4.1,1c-4.2,0-6.7-3.2-6.7-7.5c0-4.7,2.2-8.4,7.2-8.4
			c4.3,0,6.5,3.4,6.5,8.8h-11c0,3.1,1.5,4.9,4.4,4.9c2.4,0,3.8-1.8,3.9-3H584.9z M582.5,666c-0.1-2.3-1.1-4.5-4.2-4.5
			c-2.3,0-4.2,2.2-4.2,4.5H582.5z"/>
		<path fill="#FFFFFF" d="M602.2,659.2c4.8,0,7,4.1,7,7.9c0,3.9-2.2,7.9-7,7.9c-4.8,0-7-4.1-7-7.9
			C595.2,663.3,597.4,659.2,602.2,659.2z M602.2,672.9c3.6,0,4.4-3.7,4.4-5.7c0-2-0.7-5.7-4.4-5.7c-3.6,0-4.4,3.7-4.4,5.7
			C597.8,669.2,598.6,672.9,602.2,672.9z"/>
		<path fill="#FFFFFF" d="M615.2,661.8v12.9h-2.5v-12.9h-2.1v-2.1h2.1v-2.6c0-2.3,1.4-3.3,3.9-3.3c0.4,0,0.7,0,1.1,0.1v2.3
			c-0.3,0-0.7-0.1-1-0.1c-1.1,0-1.5,0.5-1.5,1.8v1.9h2.5v2.1H615.2z"/>
		<path fill="#FFFFFF" d="M626.6,654.1h16.8v2.5h-7v18.2h-2.8v-18.2h-7V654.1z"/>
		<path fill="#FFFFFF" d="M658.4,670c-0.1,0.7-0.8,2.8-2.7,4.1c-0.7,0.5-1.7,1-4.1,1c-4.2,0-6.7-3.2-6.7-7.5c0-4.7,2.2-8.4,7.2-8.4
			c4.3,0,6.5,3.4,6.5,8.8h-11c0,3.1,1.5,4.9,4.4,4.9c2.4,0,3.8-1.8,3.9-3H658.4z M656,666c-0.1-2.3-1.1-4.5-4.2-4.5
			c-2.3,0-4.2,2.2-4.2,4.5H656z"/>
		<path fill="#FFFFFF" d="M671,664.7c-0.3-2-1.4-3.2-3.6-3.2c-3.1,0-4.1,3-4.1,5.7c0,2.6,0.6,5.8,4.1,5.8c1.7,0,3.2-1.3,3.6-3.6h2.4
			c-0.3,2.4-1.7,5.7-6.1,5.7c-4.2,0-6.7-3.2-6.7-7.5c0-4.7,2.2-8.4,7.2-8.4c3.9,0,5.4,2.9,5.6,5.5H671z"/>
		<path fill="#FFFFFF" d="M688.2,674.7h-2.5v-9.8c0-2-0.6-3.4-3-3.4c-2.1,0-4.2,1.2-4.2,5v8.2H676v-20.6h2.5v7.6h0.1
			c0.7-0.9,2-2.4,4.4-2.4c2.3,0,5.3,0.9,5.3,5.2V674.7z"/>
		<path fill="#FFFFFF" d="M704.2,674.7h-2.5v-9.3c0-2.6-0.7-3.9-3.2-3.9c-1.4,0-4,0.9-4,5v8.2h-2.5v-15h2.4v2.1h0.1
			c0.5-0.8,2-2.6,4.5-2.6c2.3,0,5.3,0.9,5.3,5.2V674.7z"/>
		<path fill="#FFFFFF" d="M714,659.2c4.8,0,7,4.1,7,7.9c0,3.9-2.2,7.9-7,7.9c-4.8,0-7-4.1-7-7.9C707,663.3,709.2,659.2,714,659.2z
			 M714,672.9c3.6,0,4.4-3.7,4.4-5.7c0-2-0.7-5.7-4.4-5.7c-3.6,0-4.4,3.7-4.4,5.7C709.7,669.2,710.4,672.9,714,672.9z"/>
		<path fill="#FFFFFF" d="M726.5,674.7h-2.5v-20.6h2.5V674.7z"/>
		<path fill="#FFFFFF" d="M736.4,659.2c4.8,0,7,4.1,7,7.9c0,3.9-2.2,7.9-7,7.9c-4.8,0-7-4.1-7-7.9
			C729.4,663.3,731.6,659.2,736.4,659.2z M736.4,672.9c3.6,0,4.4-3.7,4.4-5.7c0-2-0.7-5.7-4.4-5.7c-3.6,0-4.4,3.7-4.4,5.7
			C732,669.2,732.8,672.9,736.4,672.9z"/>
		<path fill="#FFFFFF" d="M758.7,673.5c0,2.2,0,7.6-7,7.6c-1.8,0-5.3-0.5-5.7-4.5h2.5c0.5,2.4,2.8,2.4,3.4,2.4
			c4.4,0,4.3-3.5,4.3-5.3V673h-0.1v0.1c-0.7,1.1-2,2-4,2c-5.1,0-6.6-4.8-6.6-8.4c0-4.2,2.3-7.5,6.3-7.5c2.7,0,3.9,1.7,4.5,2.6h0.1
			v-2.1h2.4V673.5z M752.2,672.9c1.6,0,4.1-1.1,4.1-5.1c0-2.4-0.4-6.4-4.1-6.4c-3.9,0-4.1,3.7-4.1,5.6
			C748.1,670.4,749.4,672.9,752.2,672.9z"/>
		<path fill="#FFFFFF" d="M771.6,659.7h2.8c-1.8,4.9-3.5,9.8-5.4,14.7c-2.4,6.1-2.6,6.4-5.9,6.4c-0.4,0-0.7-0.1-1.1-0.2v-2.3
			c0.3,0.1,0.8,0.3,1.5,0.3c1.3,0,1.5-0.4,2.7-3.5l-5.6-15.4h2.9l4,12.2h0.1L771.6,659.7z"/>
	</g>
</g>
<g>
	<path d="M24.3,22.5h5.6c1.5,0,2.6,0.5,3.2,1.4c0.4,0.5,0.6,1.1,0.6,1.8c0,0.8-0.2,1.5-0.7,2c-0.2,0.3-0.6,0.5-1,0.8
		c0.7,0.3,1.2,0.5,1.5,0.9c0.6,0.6,0.9,1.3,0.9,2.3c0,0.8-0.3,1.6-0.8,2.3c-0.8,1-2,1.5-3.7,1.5h-5.5V22.5z M29.3,28
		c0.7,0,1.3-0.1,1.7-0.3c0.7-0.3,1-0.9,1-1.7c0-0.8-0.3-1.4-1-1.7c-0.4-0.2-1-0.2-1.7-0.2H26v4H29.3z M29.8,34
		c1.1,0,1.9-0.3,2.3-0.9c0.3-0.4,0.4-0.9,0.4-1.4c0-0.9-0.4-1.6-1.3-1.9c-0.4-0.2-1-0.3-1.8-0.3H26V34H29.8z"/>
	<path d="M36.2,22.5h1.6v12.9h-1.6V22.5z"/>
	<path d="M45.2,29.8c0.4,0,0.6-0.2,0.7-0.5C46,29.2,46,29,46,28.7c0-0.5-0.2-0.9-0.6-1.2c-0.4-0.2-0.9-0.4-1.6-0.4
		c-0.8,0-1.4,0.2-1.8,0.7c-0.2,0.2-0.3,0.6-0.4,1.1h-1.5c0-1.2,0.4-2,1.1-2.4s1.6-0.7,2.5-0.7c1.1,0,2,0.2,2.7,0.6
		c0.7,0.4,1,1.1,1,2v5.4c0,0.2,0,0.3,0.1,0.4c0.1,0.1,0.2,0.1,0.4,0.1c0.1,0,0.1,0,0.2,0s0.2,0,0.3,0v1.2c-0.2,0.1-0.4,0.1-0.6,0.1
		s-0.3,0-0.5,0c-0.5,0-0.9-0.2-1.2-0.6c-0.1-0.2-0.2-0.5-0.3-0.9c-0.3,0.4-0.8,0.8-1.4,1.1s-1.3,0.5-2,0.5c-0.9,0-1.6-0.3-2.1-0.8
		c-0.6-0.5-0.8-1.2-0.8-2c0-0.9,0.3-1.5,0.8-2c0.5-0.5,1.3-0.8,2.1-0.9L45.2,29.8z M41.9,34c0.3,0.3,0.7,0.4,1.2,0.4
		c0.6,0,1.1-0.1,1.6-0.4c0.9-0.4,1.3-1.1,1.3-2.1v-1.3c-0.2,0.1-0.4,0.2-0.7,0.3c-0.3,0.1-0.6,0.1-0.9,0.2l-1,0.1
		c-0.6,0.1-1,0.2-1.3,0.4c-0.5,0.3-0.7,0.7-0.7,1.3C41.4,33.4,41.5,33.8,41.9,34z"/>
	<path d="M56.4,26.5c0.7,0.5,1.1,1.4,1.2,2.7h-1.5c-0.1-0.6-0.3-1.1-0.6-1.4s-0.9-0.6-1.6-0.6c-1,0-1.7,0.5-2.2,1.5
		c-0.3,0.6-0.4,1.4-0.4,2.4c0,0.9,0.2,1.7,0.6,2.4c0.4,0.6,1,1,1.9,1c0.7,0,1.2-0.2,1.6-0.6s0.6-0.9,0.8-1.6h1.5
		c-0.2,1.2-0.6,2.2-1.3,2.7s-1.6,0.9-2.7,0.9c-1.2,0-2.2-0.4-2.9-1.3s-1.1-2-1.1-3.4c0-1.7,0.4-2.9,1.2-3.9s1.8-1.4,3.1-1.4
		C54.9,25.8,55.7,26,56.4,26.5z"/>
	<path d="M59.1,22.5h1.5V30l4.1-4h2l-3.6,3.5l3.8,5.9h-2l-3-4.8l-1.3,1.3v3.5h-1.5V22.5z"/>
	<path d="M74,26l2.5,7.7l2.6-7.7h1.7l-3.5,9.4h-1.7L72.1,26H74z"/>
	<path d="M88,26.3c0.6,0.3,1.1,0.7,1.4,1.2c0.3,0.5,0.5,1,0.6,1.7c0.1,0.4,0.1,1.1,0.1,2.1h-6.8c0,1,0.3,1.7,0.7,2.3
		c0.4,0.6,1.1,0.9,1.9,0.9c0.8,0,1.5-0.3,2-0.8c0.3-0.3,0.5-0.7,0.6-1.1h1.6c0,0.3-0.2,0.7-0.4,1.2s-0.5,0.8-0.8,1
		c-0.5,0.5-1.1,0.8-1.8,0.9c-0.4,0.1-0.8,0.1-1.3,0.1c-1.2,0-2.2-0.4-3-1.3c-0.8-0.9-1.2-2-1.2-3.6c0-1.5,0.4-2.7,1.2-3.7
		c0.8-0.9,1.9-1.4,3.2-1.4C86.7,25.8,87.4,26,88,26.3z M88.6,30c-0.1-0.7-0.2-1.2-0.4-1.6c-0.4-0.8-1.1-1.1-2.2-1.1
		c-0.7,0-1.3,0.3-1.8,0.8c-0.5,0.5-0.7,1.2-0.8,2H88.6z"/>
	<path d="M92.2,26h1.5v1.6c0.1-0.3,0.4-0.7,0.9-1.2s1-0.7,1.7-0.7c0,0,0.1,0,0.1,0s0.2,0,0.4,0v1.7c-0.1,0-0.2,0-0.3,0s-0.2,0-0.3,0
		c-0.8,0-1.4,0.3-1.8,0.8s-0.6,1.1-0.6,1.8v5.4h-1.6V26z"/>
	<path d="M99.1,32.5c0,0.5,0.2,0.9,0.4,1.2c0.4,0.5,1.1,0.8,2.1,0.8c0.6,0,1.1-0.1,1.6-0.4s0.7-0.6,0.7-1.2c0-0.4-0.2-0.7-0.5-0.9
		c-0.2-0.1-0.7-0.3-1.4-0.4l-1.3-0.3c-0.8-0.2-1.4-0.4-1.8-0.7c-0.7-0.4-1-1-1-1.8c0-0.9,0.3-1.6,1-2.2c0.7-0.6,1.5-0.8,2.6-0.8
		c1.4,0,2.5,0.4,3.1,1.2c0.4,0.5,0.6,1.1,0.6,1.7h-1.5c0-0.4-0.2-0.7-0.4-1c-0.4-0.4-1-0.6-1.9-0.6c-0.6,0-1.1,0.1-1.4,0.3
		c-0.3,0.2-0.5,0.5-0.5,0.9c0,0.4,0.2,0.7,0.6,1c0.2,0.1,0.6,0.3,1.1,0.4l1.1,0.3c1.2,0.3,1.9,0.5,2.3,0.8c0.6,0.4,0.9,1,0.9,1.9
		c0,0.8-0.3,1.6-1,2.2c-0.6,0.6-1.6,0.9-2.9,0.9c-1.4,0-2.4-0.3-3-1s-0.9-1.4-0.9-2.4H99.1z"/>
	<path d="M107.2,22.5h1.6v1.8h-1.6V22.5z M107.2,26.1h1.6v9.4h-1.6V26.1z"/>
	<path d="M118,27c0.8,0.8,1.2,2,1.2,3.6c0,1.5-0.4,2.8-1.1,3.8c-0.7,1-1.9,1.5-3.4,1.5c-1.3,0-2.3-0.4-3.1-1.3
		c-0.8-0.9-1.1-2.1-1.1-3.5c0-1.6,0.4-2.8,1.2-3.8c0.8-0.9,1.9-1.4,3.2-1.4C116.2,25.8,117.2,26.2,118,27z M117,33.2
		c0.4-0.8,0.6-1.7,0.6-2.6c0-0.9-0.1-1.6-0.4-2.1c-0.4-0.9-1.2-1.3-2.3-1.3c-1,0-1.7,0.4-2.1,1.1c-0.4,0.7-0.7,1.6-0.7,2.7
		c0,1,0.2,1.8,0.7,2.5c0.4,0.7,1.1,1,2.1,1C115.9,34.4,116.6,34,117,33.2z"/>
	<path d="M121.2,26h1.5v1.3c0.4-0.6,0.9-0.9,1.4-1.2s1.1-0.4,1.7-0.4c1.3,0,2.2,0.5,2.7,1.4c0.3,0.5,0.4,1.2,0.4,2.2v6h-1.6v-5.9
		c0-0.6-0.1-1-0.3-1.4c-0.3-0.6-0.8-0.9-1.5-0.9c-0.4,0-0.7,0-0.9,0.1c-0.4,0.1-0.8,0.4-1.1,0.8c-0.3,0.3-0.4,0.6-0.5,1
		s-0.1,0.8-0.1,1.4v4.9h-1.6V26z"/>
	<path d="M140.4,22.3c-0.9,1.8-1.5,3.1-1.8,3.9c-0.4,1.3-0.6,2.8-0.6,4.4c0,1.7,0.2,3.3,0.7,4.7c0.3,0.9,0.9,2.1,1.7,3.7h-1.1
		c-0.9-1.3-1.4-2.2-1.6-2.6s-0.4-0.9-0.7-1.5c-0.3-0.9-0.6-1.8-0.7-2.8c-0.1-0.5-0.1-1-0.1-1.5c0-1.7,0.3-3.3,0.8-4.6
		c0.3-0.9,1.1-2.2,2.2-3.9H140.4z"/>
	<path d="M142.9,23.2c0.4-0.5,1.1-0.8,2.1-0.8c0.1,0,0.2,0,0.3,0s0.2,0,0.4,0v1.4c-0.2,0-0.3,0-0.4,0c-0.1,0-0.1,0-0.2,0
		c-0.5,0-0.8,0.1-0.9,0.4s-0.1,0.9-0.1,1.9h1.6v1.2h-1.6v8.1h-1.6v-8.1h-1.3v-1.2h1.3v-1.5C142.6,24,142.7,23.5,142.9,23.2z"/>
	<path d="M154,27c0.8,0.8,1.2,2,1.2,3.6c0,1.5-0.4,2.8-1.1,3.8c-0.7,1-1.9,1.5-3.4,1.5c-1.3,0-2.3-0.4-3.1-1.3
		c-0.8-0.9-1.1-2.1-1.1-3.5c0-1.6,0.4-2.8,1.2-3.8c0.8-0.9,1.9-1.4,3.2-1.4C152.2,25.8,153.2,26.2,154,27z M153,33.2
		c0.4-0.8,0.6-1.7,0.6-2.6c0-0.9-0.1-1.6-0.4-2.1c-0.4-0.9-1.2-1.3-2.3-1.3c-1,0-1.7,0.4-2.1,1.1c-0.4,0.7-0.7,1.6-0.7,2.7
		c0,1,0.2,1.8,0.7,2.5c0.4,0.7,1.1,1,2.1,1C151.9,34.4,152.7,34,153,33.2z"/>
	<path d="M157.3,26h1.5v1.6c0.1-0.3,0.4-0.7,0.9-1.2s1-0.7,1.7-0.7c0,0,0.1,0,0.1,0s0.2,0,0.4,0v1.7c-0.1,0-0.2,0-0.3,0
		s-0.2,0-0.3,0c-0.8,0-1.4,0.3-1.8,0.8s-0.6,1.1-0.6,1.8v5.4h-1.6V26z"/>
	<path d="M168.1,22.5h1.5v4.7c0.3-0.5,0.8-0.8,1.2-1s1-0.4,1.6-0.4c1.2,0,2.1,0.4,2.9,1.2s1.1,2,1.1,3.6c0,1.5-0.4,2.7-1.1,3.7
		c-0.7,1-1.7,1.5-3,1.5c-0.7,0-1.3-0.2-1.8-0.5c-0.3-0.2-0.6-0.5-0.9-1v1.2h-1.5V22.5z M174.1,33.3c0.4-0.7,0.6-1.6,0.6-2.7
		c0-1-0.2-1.8-0.6-2.5c-0.4-0.7-1.1-1-1.9-1c-0.7,0-1.4,0.3-1.9,0.8c-0.5,0.5-0.8,1.4-0.8,2.6c0,0.9,0.1,1.6,0.3,2.2
		c0.4,1,1.2,1.6,2.3,1.6C173.1,34.4,173.7,34,174.1,33.3z"/>
	<path d="M178.3,26h1.5v1.6c0.1-0.3,0.4-0.7,0.9-1.2s1-0.7,1.7-0.7c0,0,0.1,0,0.1,0s0.2,0,0.4,0v1.7c-0.1,0-0.2,0-0.3,0
		s-0.2,0-0.3,0c-0.8,0-1.4,0.3-1.8,0.8s-0.6,1.1-0.6,1.8v5.4h-1.6V26z"/>
	<path d="M184.2,22.5h1.6v1.8h-1.6V22.5z M184.2,26.1h1.6v9.4h-1.6V26.1z"/>
	<path d="M193.4,26.4c0.3,0.2,0.6,0.5,0.9,0.9v-1.2h1.5v8.6c0,1.2-0.2,2.1-0.5,2.8c-0.7,1.3-1.9,1.9-3.7,1.9c-1,0-1.9-0.2-2.5-0.7
		c-0.7-0.5-1.1-1.2-1.2-2.1h1.6c0.1,0.4,0.2,0.7,0.5,1c0.4,0.4,0.9,0.5,1.7,0.5c1.2,0,2-0.4,2.4-1.3c0.2-0.5,0.3-1.4,0.3-2.7
		c-0.3,0.5-0.7,0.8-1.1,1.1c-0.4,0.2-1,0.4-1.8,0.4c-1,0-1.9-0.4-2.7-1.1s-1.1-1.9-1.1-3.6c0-1.6,0.4-2.8,1.2-3.7s1.7-1.3,2.8-1.3
		C192.3,25.9,192.9,26.1,193.4,26.4z M193.6,28.1c-0.5-0.6-1.1-0.8-1.8-0.8c-1.1,0-1.9,0.5-2.3,1.6c-0.2,0.6-0.3,1.3-0.3,2.2
		c0,1.1,0.2,1.9,0.6,2.4c0.4,0.6,1,0.8,1.7,0.8c1.1,0,1.9-0.5,2.4-1.5c0.3-0.6,0.4-1.3,0.4-2C194.4,29.5,194.1,28.7,193.6,28.1z"/>
	<path d="M198.2,22.5h1.6v4.8c0.4-0.5,0.7-0.8,1-1c0.5-0.3,1.1-0.5,1.9-0.5c1.4,0,2.3,0.5,2.8,1.4c0.3,0.5,0.4,1.2,0.4,2.2v6h-1.6
		v-5.9c0-0.7-0.1-1.2-0.3-1.5c-0.3-0.5-0.8-0.8-1.6-0.8c-0.7,0-1.3,0.2-1.8,0.7s-0.8,1.3-0.8,2.6v5h-1.6V22.5z"/>
	<path d="M208.5,23.4h1.6V26h1.5v1.3h-1.5v6.1c0,0.3,0.1,0.5,0.3,0.7c0.1,0.1,0.3,0.1,0.6,0.1c0.1,0,0.2,0,0.2,0s0.2,0,0.3,0v1.3
		c-0.2,0.1-0.4,0.1-0.6,0.1s-0.4,0-0.6,0c-0.7,0-1.2-0.2-1.5-0.6s-0.4-0.9-0.4-1.5v-6.2h-1.3V26h1.3V23.4z"/>
	<path d="M224.4,26.5c0.7,0.5,1.1,1.4,1.2,2.7h-1.5c-0.1-0.6-0.3-1.1-0.6-1.4s-0.9-0.6-1.6-0.6c-1,0-1.7,0.5-2.2,1.5
		c-0.3,0.6-0.4,1.4-0.4,2.4c0,0.9,0.2,1.7,0.6,2.4c0.4,0.6,1,1,1.9,1c0.7,0,1.2-0.2,1.6-0.6s0.6-0.9,0.8-1.6h1.5
		c-0.2,1.2-0.6,2.2-1.3,2.7s-1.6,0.9-2.7,0.9c-1.2,0-2.2-0.4-2.9-1.3s-1.1-2-1.1-3.4c0-1.7,0.4-2.9,1.2-3.9s1.8-1.4,3.1-1.4
		C222.9,25.8,223.8,26,224.4,26.5z"/>
	<path d="M234.1,27c0.8,0.8,1.2,2,1.2,3.6c0,1.5-0.4,2.8-1.1,3.8c-0.7,1-1.9,1.5-3.4,1.5c-1.3,0-2.3-0.4-3.1-1.3
		c-0.8-0.9-1.1-2.1-1.1-3.5c0-1.6,0.4-2.8,1.2-3.8c0.8-0.9,1.9-1.4,3.2-1.4C232.2,25.8,233.2,26.2,234.1,27z M233.1,33.2
		c0.4-0.8,0.6-1.7,0.6-2.6c0-0.9-0.1-1.6-0.4-2.1c-0.4-0.9-1.2-1.3-2.3-1.3c-1,0-1.7,0.4-2.1,1.1c-0.4,0.7-0.7,1.6-0.7,2.7
		c0,1,0.2,1.8,0.7,2.5c0.4,0.7,1.1,1,2.1,1C232,34.4,232.7,34,233.1,33.2z"/>
	<path d="M237.3,22.5h1.6v12.9h-1.6V22.5z"/>
	<path d="M248.1,27c0.8,0.8,1.2,2,1.2,3.6c0,1.5-0.4,2.8-1.1,3.8c-0.7,1-1.9,1.5-3.4,1.5c-1.3,0-2.3-0.4-3.1-1.3
		c-0.8-0.9-1.1-2.1-1.1-3.5c0-1.6,0.4-2.8,1.2-3.8c0.8-0.9,1.9-1.4,3.2-1.4C246.2,25.8,247.2,26.2,248.1,27z M247.1,33.2
		c0.4-0.8,0.6-1.7,0.6-2.6c0-0.9-0.1-1.6-0.4-2.1c-0.4-0.9-1.2-1.3-2.3-1.3c-1,0-1.7,0.4-2.1,1.1c-0.4,0.7-0.7,1.6-0.7,2.7
		c0,1,0.2,1.8,0.7,2.5c0.4,0.7,1.1,1,2.1,1C246,34.4,246.7,34,247.1,33.2z"/>
	<path d="M251.3,26h1.5v1.6c0.1-0.3,0.4-0.7,0.9-1.2s1-0.7,1.7-0.7c0,0,0.1,0,0.1,0s0.2,0,0.4,0v1.7c-0.1,0-0.2,0-0.3,0
		s-0.2,0-0.3,0c-0.8,0-1.4,0.3-1.8,0.8s-0.6,1.1-0.6,1.8v5.4h-1.6V26z"/>
	<path d="M262.1,22.5h1.5v4.7c0.3-0.5,0.8-0.8,1.2-1s1-0.4,1.6-0.4c1.2,0,2.1,0.4,2.9,1.2s1.1,2,1.1,3.6c0,1.5-0.4,2.7-1.1,3.7
		c-0.7,1-1.7,1.5-3,1.5c-0.7,0-1.3-0.2-1.8-0.5c-0.3-0.2-0.6-0.5-0.9-1v1.2h-1.5V22.5z M268.2,33.3c0.4-0.7,0.6-1.6,0.6-2.7
		c0-1-0.2-1.8-0.6-2.5c-0.4-0.7-1.1-1-1.9-1c-0.7,0-1.4,0.3-1.9,0.8c-0.5,0.5-0.8,1.4-0.8,2.6c0,0.9,0.1,1.6,0.3,2.2
		c0.4,1,1.2,1.6,2.3,1.6C267.1,34.4,267.7,34,268.2,33.3z"/>
	<path d="M277.3,29.8c0.4,0,0.6-0.2,0.7-0.5c0.1-0.1,0.1-0.3,0.1-0.6c0-0.5-0.2-0.9-0.6-1.2c-0.4-0.2-0.9-0.4-1.6-0.4
		c-0.8,0-1.4,0.2-1.8,0.7c-0.2,0.2-0.3,0.6-0.4,1.1h-1.5c0-1.2,0.4-2,1.1-2.4s1.6-0.7,2.5-0.7c1.1,0,2,0.2,2.7,0.6
		c0.7,0.4,1,1.1,1,2v5.4c0,0.2,0,0.3,0.1,0.4c0.1,0.1,0.2,0.1,0.4,0.1c0.1,0,0.1,0,0.2,0s0.2,0,0.3,0v1.2c-0.2,0.1-0.4,0.1-0.6,0.1
		s-0.3,0-0.5,0c-0.5,0-0.9-0.2-1.2-0.6c-0.1-0.2-0.2-0.5-0.3-0.9c-0.3,0.4-0.8,0.8-1.4,1.1s-1.3,0.5-2,0.5c-0.9,0-1.6-0.3-2.1-0.8
		c-0.6-0.5-0.8-1.2-0.8-2c0-0.9,0.3-1.5,0.8-2c0.5-0.5,1.3-0.8,2.1-0.9L277.3,29.8z M274,34c0.3,0.3,0.7,0.4,1.2,0.4
		c0.6,0,1.1-0.1,1.6-0.4c0.9-0.4,1.3-1.1,1.3-2.1v-1.3c-0.2,0.1-0.4,0.2-0.7,0.3c-0.3,0.1-0.6,0.1-0.9,0.2l-1,0.1
		c-0.6,0.1-1,0.2-1.3,0.4c-0.5,0.3-0.7,0.7-0.7,1.3C273.5,33.4,273.6,33.8,274,34z"/>
	<path d="M288.5,26.5c0.7,0.5,1.1,1.4,1.2,2.7h-1.5c-0.1-0.6-0.3-1.1-0.6-1.4s-0.9-0.6-1.6-0.6c-1,0-1.7,0.5-2.2,1.5
		c-0.3,0.6-0.4,1.4-0.4,2.4c0,0.9,0.2,1.7,0.6,2.4c0.4,0.6,1,1,1.9,1c0.7,0,1.2-0.2,1.6-0.6s0.6-0.9,0.8-1.6h1.5
		c-0.2,1.2-0.6,2.2-1.3,2.7s-1.6,0.9-2.7,0.9c-1.2,0-2.2-0.4-2.9-1.3s-1.1-2-1.1-3.4c0-1.7,0.4-2.9,1.2-3.9s1.8-1.4,3.1-1.4
		C287,25.8,287.8,26,288.5,26.5z"/>
	<path d="M291.2,22.5h1.5V30l4.1-4h2l-3.6,3.5l3.8,5.9h-2l-3-4.8l-1.3,1.3v3.5h-1.5V22.5z"/>
	<path d="M299.7,39.1c0.9-1.8,1.5-3.1,1.8-4c0.4-1.3,0.6-2.7,0.6-4.4s-0.2-3.2-0.7-4.6c-0.3-0.9-0.9-2.1-1.7-3.7h1.1
		c0.9,1.4,1.4,2.3,1.6,2.7s0.4,0.8,0.6,1.4c0.3,0.7,0.5,1.5,0.6,2.2s0.2,1.4,0.2,2.1c0,1.7-0.3,3.3-0.8,4.6
		c-0.3,0.9-1.1,2.2-2.2,3.9H299.7z"/>
</g>
<g>
	<path fill="#FFFFFF" d="M25.2,406.5l2.4,10.5l2.9-10.5h1.9l2.9,10.5l2.4-10.5h1.9l-3.4,12.9h-1.8l-3-10.7l-3,10.7h-1.8l-3.4-12.9
		H25.2z"/>
	<path fill="#FFFFFF" d="M41.1,406.5h1.6v4.8c0.4-0.5,0.7-0.8,1-1c0.5-0.3,1.1-0.5,1.9-0.5c1.4,0,2.3,0.5,2.8,1.4
		c0.3,0.5,0.4,1.2,0.4,2.2v6h-1.6v-5.9c0-0.7-0.1-1.2-0.3-1.5c-0.3-0.5-0.8-0.8-1.6-0.8c-0.7,0-1.3,0.2-1.8,0.7s-0.8,1.3-0.8,2.6v5
		h-1.6V406.5z"/>
	<path fill="#FFFFFF" d="M51.2,406.5h1.6v1.8h-1.6V406.5z M51.2,410.1h1.6v9.4h-1.6V410.1z"/>
	<path fill="#FFFFFF" d="M55.5,407.4h1.6v2.6h1.5v1.3h-1.5v6.1c0,0.3,0.1,0.5,0.3,0.7c0.1,0.1,0.3,0.1,0.6,0.1c0.1,0,0.2,0,0.2,0
		s0.2,0,0.3,0v1.3c-0.2,0.1-0.4,0.1-0.6,0.1s-0.4,0-0.6,0c-0.7,0-1.2-0.2-1.5-0.6c-0.3-0.4-0.4-0.9-0.4-1.5v-6.2h-1.3V410h1.3V407.4
		z"/>
	<path fill="#FFFFFF" d="M66,410.3c0.6,0.3,1.1,0.7,1.4,1.2c0.3,0.5,0.5,1,0.6,1.7c0.1,0.4,0.1,1.1,0.1,2.1h-6.8
		c0,1,0.3,1.7,0.7,2.3c0.4,0.6,1.1,0.9,1.9,0.9c0.8,0,1.5-0.3,2-0.8c0.3-0.3,0.5-0.7,0.6-1.1H68c0,0.3-0.2,0.7-0.4,1.2
		c-0.2,0.4-0.5,0.8-0.8,1c-0.5,0.5-1.1,0.8-1.8,0.9c-0.4,0.1-0.8,0.1-1.3,0.1c-1.2,0-2.2-0.4-3-1.3c-0.8-0.9-1.2-2-1.2-3.6
		c0-1.5,0.4-2.7,1.2-3.7c0.8-0.9,1.9-1.4,3.2-1.4C64.7,409.8,65.4,410,66,410.3z M66.5,414c-0.1-0.7-0.2-1.2-0.4-1.6
		c-0.4-0.8-1.1-1.1-2.2-1.1c-0.7,0-1.3,0.3-1.8,0.8c-0.5,0.5-0.7,1.2-0.8,2H66.5z"/>
	<path fill="#FFFFFF" d="M75.9,410l2.5,7.7l2.6-7.7h1.7l-3.5,9.4h-1.7l-3.5-9.4H75.9z"/>
	<path fill="#FFFFFF" d="M90,410.3c0.6,0.3,1.1,0.7,1.4,1.2c0.3,0.5,0.5,1,0.6,1.7c0.1,0.4,0.1,1.1,0.1,2.1h-6.8
		c0,1,0.3,1.7,0.7,2.3c0.4,0.6,1.1,0.9,1.9,0.9c0.8,0,1.5-0.3,2-0.8c0.3-0.3,0.5-0.7,0.6-1.1H92c0,0.3-0.2,0.7-0.4,1.2
		c-0.2,0.4-0.5,0.8-0.8,1c-0.5,0.5-1.1,0.8-1.8,0.9c-0.4,0.1-0.8,0.1-1.3,0.1c-1.2,0-2.2-0.4-3-1.3c-0.8-0.9-1.2-2-1.2-3.6
		c0-1.5,0.4-2.7,1.2-3.7c0.8-0.9,1.9-1.4,3.2-1.4C88.7,409.8,89.4,410,90,410.3z M90.6,414c-0.1-0.7-0.2-1.2-0.4-1.6
		c-0.4-0.8-1.1-1.1-2.2-1.1c-0.7,0-1.3,0.3-1.8,0.8c-0.5,0.5-0.7,1.2-0.8,2H90.6z"/>
	<path fill="#FFFFFF" d="M94.2,410h1.5v1.6c0.1-0.3,0.4-0.7,0.9-1.2c0.5-0.5,1-0.7,1.7-0.7c0,0,0.1,0,0.1,0s0.2,0,0.4,0v1.7
		c-0.1,0-0.2,0-0.3,0s-0.2,0-0.3,0c-0.8,0-1.4,0.3-1.8,0.8c-0.4,0.5-0.6,1.1-0.6,1.8v5.4h-1.6V410z"/>
	<path fill="#FFFFFF" d="M101.1,416.5c0,0.5,0.2,0.9,0.4,1.2c0.4,0.5,1.1,0.8,2.1,0.8c0.6,0,1.1-0.1,1.6-0.4
		c0.5-0.3,0.7-0.6,0.7-1.2c0-0.4-0.2-0.7-0.5-0.9c-0.2-0.1-0.7-0.3-1.4-0.4l-1.3-0.3c-0.8-0.2-1.4-0.4-1.8-0.7c-0.7-0.4-1-1-1-1.8
		c0-0.9,0.3-1.6,1-2.2c0.7-0.6,1.5-0.8,2.6-0.8c1.4,0,2.5,0.4,3.1,1.2c0.4,0.5,0.6,1.1,0.6,1.7h-1.5c0-0.4-0.2-0.7-0.4-1
		c-0.4-0.4-1-0.6-1.9-0.6c-0.6,0-1.1,0.1-1.4,0.3c-0.3,0.2-0.5,0.5-0.5,0.9c0,0.4,0.2,0.7,0.6,1c0.2,0.1,0.6,0.3,1.1,0.4l1.1,0.3
		c1.2,0.3,1.9,0.5,2.3,0.8c0.6,0.4,0.9,1,0.9,1.9c0,0.8-0.3,1.6-1,2.2c-0.6,0.6-1.6,0.9-2.9,0.9c-1.4,0-2.4-0.3-3-1
		c-0.6-0.6-0.9-1.4-0.9-2.4H101.1z"/>
	<path fill="#FFFFFF" d="M109.2,406.5h1.6v1.8h-1.6V406.5z M109.2,410.1h1.6v9.4h-1.6V410.1z"/>
	<path fill="#FFFFFF" d="M120,411c0.8,0.8,1.2,2,1.2,3.6c0,1.5-0.4,2.8-1.1,3.8c-0.7,1-1.9,1.5-3.4,1.5c-1.3,0-2.3-0.4-3.1-1.3
		c-0.8-0.9-1.1-2.1-1.1-3.5c0-1.6,0.4-2.8,1.2-3.8c0.8-0.9,1.9-1.4,3.2-1.4C118.1,409.8,119.2,410.2,120,411z M119,417.2
		c0.4-0.8,0.6-1.7,0.6-2.6c0-0.9-0.1-1.6-0.4-2.1c-0.4-0.9-1.2-1.3-2.3-1.3c-1,0-1.7,0.4-2.1,1.1c-0.4,0.7-0.7,1.6-0.7,2.7
		c0,1,0.2,1.8,0.7,2.5c0.4,0.7,1.1,1,2.1,1C117.9,418.4,118.6,418,119,417.2z"/>
	<path fill="#FFFFFF" d="M123.2,410h1.5v1.3c0.4-0.6,0.9-0.9,1.4-1.2s1.1-0.4,1.7-0.4c1.3,0,2.2,0.5,2.7,1.4
		c0.3,0.5,0.4,1.2,0.4,2.2v6h-1.6v-5.9c0-0.6-0.1-1-0.3-1.4c-0.3-0.6-0.8-0.9-1.5-0.9c-0.4,0-0.7,0-0.9,0.1
		c-0.4,0.1-0.8,0.4-1.1,0.8c-0.3,0.3-0.4,0.6-0.5,1c-0.1,0.3-0.1,0.8-0.1,1.4v4.9h-1.6V410z"/>
	<path fill="#FFFFFF" d="M142.4,406.3c-0.9,1.8-1.5,3.1-1.8,3.9c-0.4,1.3-0.6,2.8-0.6,4.4c0,1.7,0.2,3.3,0.7,4.7
		c0.3,0.9,0.9,2.1,1.7,3.7h-1.1c-0.9-1.3-1.4-2.2-1.6-2.6s-0.4-0.9-0.7-1.5c-0.3-0.9-0.6-1.8-0.7-2.8c-0.1-0.5-0.1-1-0.1-1.5
		c0-1.7,0.3-3.3,0.8-4.6c0.3-0.9,1.1-2.2,2.2-3.9H142.4z"/>
	<path fill="#FFFFFF" d="M144.9,407.2c0.4-0.5,1.1-0.8,2.1-0.8c0.1,0,0.2,0,0.3,0s0.2,0,0.4,0v1.4c-0.2,0-0.3,0-0.4,0
		c-0.1,0-0.1,0-0.2,0c-0.5,0-0.8,0.1-0.9,0.4c-0.1,0.2-0.1,0.9-0.1,1.9h1.6v1.2h-1.6v8.1h-1.6v-8.1h-1.3v-1.2h1.3v-1.5
		C144.6,408,144.7,407.5,144.9,407.2z"/>
	<path fill="#FFFFFF" d="M156,411c0.8,0.8,1.2,2,1.2,3.6c0,1.5-0.4,2.8-1.1,3.8c-0.7,1-1.9,1.5-3.4,1.5c-1.3,0-2.3-0.4-3.1-1.3
		c-0.8-0.9-1.1-2.1-1.1-3.5c0-1.6,0.4-2.8,1.2-3.8c0.8-0.9,1.9-1.4,3.2-1.4C154.2,409.8,155.2,410.2,156,411z M155,417.2
		c0.4-0.8,0.6-1.7,0.6-2.6c0-0.9-0.1-1.6-0.4-2.1c-0.4-0.9-1.2-1.3-2.3-1.3c-1,0-1.7,0.4-2.1,1.1c-0.4,0.7-0.7,1.6-0.7,2.7
		c0,1,0.2,1.8,0.7,2.5c0.4,0.7,1.1,1,2.1,1C153.9,418.4,154.6,418,155,417.2z"/>
	<path fill="#FFFFFF" d="M159.2,410h1.5v1.6c0.1-0.3,0.4-0.7,0.9-1.2c0.5-0.5,1-0.7,1.7-0.7c0,0,0.1,0,0.1,0s0.2,0,0.4,0v1.7
		c-0.1,0-0.2,0-0.3,0s-0.2,0-0.3,0c-0.8,0-1.4,0.3-1.8,0.8c-0.4,0.5-0.6,1.1-0.6,1.8v5.4h-1.6V410z"/>
	<path fill="#FFFFFF" d="M175.4,410.3c0.3,0.2,0.6,0.5,1,0.9v-4.8h1.5v13h-1.4v-1.3c-0.4,0.6-0.8,1-1.3,1.3s-1.1,0.4-1.7,0.4
		c-1,0-1.9-0.4-2.7-1.3c-0.8-0.9-1.1-2.1-1.1-3.5c0-1.4,0.3-2.6,1-3.6c0.7-1,1.7-1.5,3-1.5C174.3,409.9,174.9,410,175.4,410.3z
		 M171.8,417.4c0.4,0.7,1.1,1,2,1c0.7,0,1.3-0.3,1.8-0.9c0.5-0.6,0.7-1.5,0.7-2.7c0-1.2-0.2-2.1-0.7-2.6c-0.5-0.6-1.1-0.9-1.8-0.9
		c-0.8,0-1.4,0.3-1.9,0.9s-0.7,1.5-0.7,2.7C171.2,415.9,171.4,416.7,171.8,417.4z"/>
	<path fill="#FFFFFF" d="M185.3,413.8c0.4,0,0.6-0.2,0.7-0.5c0.1-0.1,0.1-0.3,0.1-0.6c0-0.5-0.2-0.9-0.6-1.2
		c-0.4-0.2-0.9-0.4-1.6-0.4c-0.8,0-1.4,0.2-1.8,0.7c-0.2,0.2-0.3,0.6-0.4,1.1h-1.5c0-1.2,0.4-2,1.1-2.4c0.7-0.5,1.6-0.7,2.5-0.7
		c1.1,0,2,0.2,2.7,0.6c0.7,0.4,1,1.1,1,2v5.4c0,0.2,0,0.3,0.1,0.4c0.1,0.1,0.2,0.1,0.4,0.1c0.1,0,0.1,0,0.2,0c0.1,0,0.2,0,0.3,0v1.2
		c-0.2,0.1-0.4,0.1-0.6,0.1s-0.3,0-0.5,0c-0.5,0-0.9-0.2-1.2-0.6c-0.1-0.2-0.2-0.5-0.3-0.9c-0.3,0.4-0.8,0.8-1.4,1.1s-1.3,0.5-2,0.5
		c-0.9,0-1.6-0.3-2.1-0.8s-0.8-1.2-0.8-2c0-0.9,0.3-1.5,0.8-2c0.5-0.5,1.3-0.8,2.1-0.9L185.3,413.8z M181.9,418
		c0.3,0.3,0.7,0.4,1.2,0.4c0.6,0,1.1-0.1,1.6-0.4c0.9-0.4,1.3-1.1,1.3-2.1v-1.3c-0.2,0.1-0.4,0.2-0.7,0.3c-0.3,0.1-0.6,0.1-0.9,0.2
		l-1,0.1c-0.6,0.1-1,0.2-1.3,0.4c-0.5,0.3-0.7,0.7-0.7,1.3C181.4,417.4,181.6,417.8,181.9,418z"/>
	<path fill="#FFFFFF" d="M190.3,410h1.5v1.6c0.1-0.3,0.4-0.7,0.9-1.2c0.5-0.5,1-0.7,1.7-0.7c0,0,0.1,0,0.1,0s0.2,0,0.4,0v1.7
		c-0.1,0-0.2,0-0.3,0s-0.2,0-0.3,0c-0.8,0-1.4,0.3-1.8,0.8c-0.4,0.5-0.6,1.1-0.6,1.8v5.4h-1.6V410z"/>
	<path fill="#FFFFFF" d="M196.2,406.5h1.5v7.5l4.1-4h2l-3.6,3.5l3.8,5.9h-2l-3-4.8l-1.3,1.3v3.5h-1.5V406.5z"/>
	<path fill="#FFFFFF" d="M216.4,410.5c0.7,0.5,1.1,1.4,1.2,2.7h-1.5c-0.1-0.6-0.3-1.1-0.6-1.4c-0.3-0.4-0.9-0.6-1.6-0.6
		c-1,0-1.7,0.5-2.2,1.5c-0.3,0.6-0.4,1.4-0.4,2.4c0,0.9,0.2,1.7,0.6,2.4c0.4,0.6,1,1,1.9,1c0.7,0,1.2-0.2,1.6-0.6s0.6-0.9,0.8-1.6
		h1.5c-0.2,1.2-0.6,2.2-1.3,2.7c-0.7,0.6-1.6,0.9-2.7,0.9c-1.2,0-2.2-0.5-2.9-1.3c-0.7-0.9-1.1-2-1.1-3.4c0-1.7,0.4-2.9,1.2-3.9
		s1.8-1.4,3.1-1.4C214.9,409.8,215.8,410,216.4,410.5z"/>
	<path fill="#FFFFFF" d="M226,411c0.8,0.8,1.2,2,1.2,3.6c0,1.5-0.4,2.8-1.1,3.8c-0.7,1-1.9,1.5-3.4,1.5c-1.3,0-2.3-0.4-3.1-1.3
		c-0.8-0.9-1.1-2.1-1.1-3.5c0-1.6,0.4-2.8,1.2-3.8c0.8-0.9,1.9-1.4,3.2-1.4C224.2,409.8,225.2,410.2,226,411z M225.1,417.2
		c0.4-0.8,0.6-1.7,0.6-2.6c0-0.9-0.1-1.6-0.4-2.1c-0.4-0.9-1.2-1.3-2.3-1.3c-1,0-1.7,0.4-2.1,1.1c-0.4,0.7-0.7,1.6-0.7,2.7
		c0,1,0.2,1.8,0.7,2.5c0.4,0.7,1.1,1,2.1,1C224,418.4,224.7,418,225.1,417.2z"/>
	<path fill="#FFFFFF" d="M229.3,406.5h1.6v12.9h-1.6V406.5z"/>
	<path fill="#FFFFFF" d="M240,411c0.8,0.8,1.2,2,1.2,3.6c0,1.5-0.4,2.8-1.1,3.8c-0.7,1-1.9,1.5-3.4,1.5c-1.3,0-2.3-0.4-3.1-1.3
		c-0.8-0.9-1.1-2.1-1.1-3.5c0-1.6,0.4-2.8,1.2-3.8c0.8-0.9,1.9-1.4,3.2-1.4C238.2,409.8,239.2,410.2,240,411z M239.1,417.2
		c0.4-0.8,0.6-1.7,0.6-2.6c0-0.9-0.1-1.6-0.4-2.1c-0.4-0.9-1.2-1.3-2.3-1.3c-1,0-1.7,0.4-2.1,1.1c-0.4,0.7-0.7,1.6-0.7,2.7
		c0,1,0.2,1.8,0.7,2.5c0.4,0.7,1.1,1,2.1,1C238,418.4,238.7,418,239.1,417.2z"/>
	<path fill="#FFFFFF" d="M243.3,410h1.5v1.6c0.1-0.3,0.4-0.7,0.9-1.2c0.5-0.5,1-0.7,1.7-0.7c0,0,0.1,0,0.1,0s0.2,0,0.4,0v1.7
		c-0.1,0-0.2,0-0.3,0s-0.2,0-0.3,0c-0.8,0-1.4,0.3-1.8,0.8c-0.4,0.5-0.6,1.1-0.6,1.8v5.4h-1.6V410z"/>
	<path fill="#FFFFFF" d="M254.1,406.5h1.5v4.7c0.3-0.5,0.8-0.8,1.2-1c0.5-0.2,1-0.4,1.6-0.4c1.2,0,2.1,0.4,2.9,1.2
		c0.7,0.8,1.1,2,1.1,3.6c0,1.5-0.4,2.7-1.1,3.7c-0.7,1-1.7,1.5-3,1.5c-0.7,0-1.3-0.2-1.8-0.5c-0.3-0.2-0.6-0.5-0.9-1v1.2h-1.5V406.5
		z M260.1,417.3c0.4-0.7,0.6-1.6,0.6-2.7c0-1-0.2-1.8-0.6-2.5c-0.4-0.7-1.1-1-1.9-1c-0.7,0-1.4,0.3-1.9,0.8
		c-0.5,0.5-0.8,1.4-0.8,2.6c0,0.9,0.1,1.6,0.3,2.2c0.4,1,1.2,1.6,2.3,1.6C259.1,418.4,259.7,418,260.1,417.3z"/>
	<path fill="#FFFFFF" d="M269.3,413.8c0.4,0,0.6-0.2,0.7-0.5c0.1-0.1,0.1-0.3,0.1-0.6c0-0.5-0.2-0.9-0.6-1.2
		c-0.4-0.2-0.9-0.4-1.6-0.4c-0.8,0-1.4,0.2-1.8,0.7c-0.2,0.2-0.3,0.6-0.4,1.1h-1.5c0-1.2,0.4-2,1.1-2.4c0.7-0.5,1.6-0.7,2.5-0.7
		c1.1,0,2,0.2,2.7,0.6c0.7,0.4,1,1.1,1,2v5.4c0,0.2,0,0.3,0.1,0.4c0.1,0.1,0.2,0.1,0.4,0.1c0.1,0,0.1,0,0.2,0c0.1,0,0.2,0,0.3,0v1.2
		c-0.2,0.1-0.4,0.1-0.6,0.1s-0.3,0-0.5,0c-0.5,0-0.9-0.2-1.2-0.6c-0.1-0.2-0.2-0.5-0.3-0.9c-0.3,0.4-0.8,0.8-1.4,1.1s-1.3,0.5-2,0.5
		c-0.9,0-1.6-0.3-2.1-0.8s-0.8-1.2-0.8-2c0-0.9,0.3-1.5,0.8-2c0.5-0.5,1.3-0.8,2.1-0.9L269.3,413.8z M266,418
		c0.3,0.3,0.7,0.4,1.2,0.4c0.6,0,1.1-0.1,1.6-0.4c0.9-0.4,1.3-1.1,1.3-2.1v-1.3c-0.2,0.1-0.4,0.2-0.7,0.3c-0.3,0.1-0.6,0.1-0.9,0.2
		l-1,0.1c-0.6,0.1-1,0.2-1.3,0.4c-0.5,0.3-0.7,0.7-0.7,1.3C265.5,417.4,265.6,417.8,266,418z"/>
	<path fill="#FFFFFF" d="M280.5,410.5c0.7,0.5,1.1,1.4,1.2,2.7h-1.5c-0.1-0.6-0.3-1.1-0.6-1.4c-0.3-0.4-0.9-0.6-1.6-0.6
		c-1,0-1.7,0.5-2.2,1.5c-0.3,0.6-0.4,1.4-0.4,2.4c0,0.9,0.2,1.7,0.6,2.4c0.4,0.6,1,1,1.9,1c0.7,0,1.2-0.2,1.6-0.6s0.6-0.9,0.8-1.6
		h1.5c-0.2,1.2-0.6,2.2-1.3,2.7c-0.7,0.6-1.6,0.9-2.7,0.9c-1.2,0-2.2-0.5-2.9-1.3c-0.7-0.9-1.1-2-1.1-3.4c0-1.7,0.4-2.9,1.2-3.9
		s1.8-1.4,3.1-1.4C278.9,409.8,279.8,410,280.5,410.5z"/>
	<path fill="#FFFFFF" d="M283.2,406.5h1.5v7.5l4.1-4h2l-3.6,3.5l3.8,5.9h-2l-3-4.8l-1.3,1.3v3.5h-1.5V406.5z"/>
	<path fill="#FFFFFF" d="M291.7,423.1c0.9-1.8,1.5-3.1,1.8-4c0.4-1.3,0.6-2.7,0.6-4.4s-0.2-3.2-0.7-4.6c-0.3-0.9-0.9-2.1-1.7-3.7
		h1.1c0.9,1.4,1.4,2.3,1.6,2.7c0.2,0.3,0.4,0.8,0.6,1.4c0.3,0.7,0.5,1.5,0.6,2.2s0.2,1.4,0.2,2.1c0,1.7-0.3,3.3-0.8,4.6
		c-0.3,0.9-1.1,2.2-2.2,3.9H291.7z"/>
</g>
</svg>
