<?xml version="1.0" encoding="UTF-8" standalone="no"?>
<!DOCTYPE svg PUBLIC "-//W3C//DTD SVG 1.1//EN" "http://www.w3.org/Graphics/SVG/1.1/DTD/svg11.dtd">
<svg width="100%" height="100%" viewBox="0 0 128 128" version="1.1" xmlns="http://www.w3.org/2000/svg" xmlns:xlink="http://www.w3.org/1999/xlink" xml:space="preserve" style="fill-rule:evenodd;clip-rule:evenodd;stroke-linecap:round;stroke-linejoin:round;stroke-miterlimit:1.5;">
    <rect x="0" y="0" width="128" height="128" style="fill:rgb(38,35,134);"/>
    <g transform="matrix(1.0244,0,0,1.0244,-1.35676,-2.24118)">
        <path d="M64,22.613L89.923,40.553L83.522,43.923L69.324,38.694L71.04,79.468L118.074,58.803L126.276,64.398L64,102.838L64,103.085L63.8,102.962L63.6,103.085L63.6,102.838L1.324,64.398L9.526,58.803L56.56,79.468L58.276,38.694L44.078,43.923L37.677,40.553L63.6,22.613L63.6,22.337L63.8,22.475L64,22.337L64,22.613Z" style="fill:none;stroke:white;stroke-width:0.98px;"/>
    </g>
    <g>
        <g id="rect2820_19_" transform="matrix(1.21555,0,0,1.21555,-1322.2,-303.528)">
            <path d="M1123.8,285.4L1123.8,287.7L1113.1,287.7L1113.1,290.2L1137,290.2L1137,287.7L1126.3,287.7L1126.3,285.4L1123.8,285.4ZM1115.6,291.7L1115.6,298.2L1134.5,298.2L1134.5,297.5L1134.5,295.7L1134.5,294.2L1134.5,293.7L1134.5,291.7L1115.6,291.7ZM1118.1,294.2L1132,294.2L1132,295.7L1118.1,295.7L1118.1,294.2ZM1113.1,300.2L1113.1,310.7L1115.6,310.7L1115.6,302.7L1134.5,302.7L1134.5,310.7L1137,310.7L1137,302.7L1137,301.9L1137,300.2L1113.1,300.2ZM1118.1,304.3L1118.1,310.3L1132,310.3L1132,309.6L1132,307.8L1132,306.8L1132,305.8L1132,304.3L1118.1,304.3ZM1120.6,306.8L1129.4,306.8L1129.4,307.8L1120.6,307.8L1120.6,306.8Z" style="fill:white;fill-rule:nonzero;"/>
        </g>
        <g id="rect2873_19_" transform="matrix(1.21555,0,0,1.21555,-1322.2,-303.528)">
            <path d="M1154.7,285.4L1154.7,287.7L1144,287.7L1144,290.2L1154.7,290.2L1154.7,291.7L1143.4,291.7L1143.4,302.9L1146.4,302.9L1146.4,304.9L1144,304.9L1144,307.4L1146.4,307.4L1146.4,311L1148.9,311L1148.9,307.4L1163,307.4L1163,311L1165.5,311L1165.5,307.4L1167.9,307.4L1167.9,304.9L1165.5,304.9L1165.5,302.9L1168.5,302.9L1168.5,301.4L1168.5,300.3L1168.5,298.5L1168.5,296L1168.5,294.2L1168.5,292.9L1168.5,291.7L1157.2,291.7L1157.2,290.2L1167.9,290.2L1167.9,287.7L1157.2,287.7L1157.2,285.4L1154.7,285.4ZM1145.9,294.2L1154.7,294.2L1154.7,296L1145.9,296L1145.9,294.2ZM1157.2,294.2L1166,294.2L1166,296L1157.2,296L1157.2,294.2ZM1145.9,298.5L1154.7,298.5L1154.7,300.3L1145.9,300.3L1145.9,298.5ZM1157.2,298.5L1166,298.5L1166,300.3L1157.2,300.3L1157.2,298.5ZM1148.9,302.8L1163,302.8L1163,304.8L1148.9,304.8L1148.9,302.8Z" style="fill:white;fill-rule:nonzero;"/>
        </g>
    </g>
</svg>
