<?xml version="1.0" encoding="UTF-8" standalone="no"?>
<!-- Created with Inkscape (http://www.inkscape.org/) -->

<svg
   xmlns:dc="http://purl.org/dc/elements/1.1/"
   xmlns:cc="http://creativecommons.org/ns#"
   xmlns:rdf="http://www.w3.org/1999/02/22-rdf-syntax-ns#"
   xmlns:svg="http://www.w3.org/2000/svg"
   xmlns="http://www.w3.org/2000/svg"
   xmlns:sodipodi="http://sodipodi.sourceforge.net/DTD/sodipodi-0.dtd"
   xmlns:inkscape="http://www.inkscape.org/namespaces/inkscape"
   width="170.25937mm"
   height="55.588959mm"
   viewBox="0 0 170.25937 55.588959"
   version="1.1"
   id="svg2794"
   inkscape:version="0.92.2 (5c3e80d, 2017-08-06)"
   sodipodi:docname="sysken_logo_white.svg">
  <defs
     id="defs2788" />
  <sodipodi:namedview
     id="base"
     pagecolor="#ffffff"
     bordercolor="#666666"
     borderopacity="1.0"
     inkscape:pageopacity="0.0"
     inkscape:pageshadow="2"
     inkscape:zoom="0.42440218"
     inkscape:cx="-486.75662"
     inkscape:cy="-46.735642"
     inkscape:document-units="mm"
     inkscape:current-layer="layer1"
     showgrid="false"
     fit-margin-top="0"
     fit-margin-left="0"
     fit-margin-right="0"
     fit-margin-bottom="0"
     inkscape:window-width="1920"
     inkscape:window-height="1051"
     inkscape:window-x="-9"
     inkscape:window-y="-9"
     inkscape:window-maximized="1" />
  <metadata
     id="metadata2791">
    <rdf:RDF>
      <cc:Work
         rdf:about="">
        <dc:format>image/svg+xml</dc:format>
        <dc:type
           rdf:resource="http://purl.org/dc/dcmitype/StillImage" />
        <dc:title></dc:title>
      </cc:Work>
    </rdf:RDF>
  </metadata>
  <g
     inkscape:label="レイヤー 1"
     inkscape:groupmode="layer"
     id="layer1"
     transform="translate(102.1016,-50.995303)">
    <g
       transform="translate(-164.73709,52.452431)"
       id="g3587">
      <g
         id="g3523">
        <g
           id="g3460">
          <g
             id="g3398">
            <g
               id="g933"
               transform="matrix(0.26458333,0,0,0.26458333,12.285287,-24.475878)">
              <g
                 id="g829">
                <path
                   style="fill:#231815"
                   inkscape:connector-curvature="0"
                   d="m 293.2,153.7 h -59.4 c -6.4,0 -11.1,1.2 -14,3.6 -3,2.4 -4.5,6.2 -4.5,11.4 0,4.1 1.3,7.3 3.8,9.3 2.5,2.1 6.3,3.1 11.4,3.1 h 31.8 c 13.2,0 22.5,2.5 28.1,7.5 5.6,5 8.4,13.3 8.4,24.9 0,11.8 -3.2,20.4 -9.6,25.9 -6.4,5.5 -16.5,8.3 -30.3,8.3 h -64 V 227.3 H 255 c 6.8,0 11.7,-1 14.5,-3 2.8,-2 4.2,-5.3 4.2,-9.9 0,-4.8 -1.3,-8.2 -3.8,-10.2 -2.6,-2 -7,-3 -13.2,-3 h -28.4 c -13.2,0 -22.8,-2.6 -28.9,-7.9 -6.1,-5.3 -9.1,-13.6 -9.1,-24.9 0,-12.1 3.2,-21 9.6,-26.6 6.4,-5.6 16.6,-8.4 30.5,-8.4 h 62.9 v 20.3 z"
                   id="path817" />
                <polygon
                   style="fill:#231815"
                   points="353.7,177 382.3,133.4 410.3,133.4 366.1,197.2 366.1,247.6 342.1,247.6 342.1,197.2 298.5,133.4 325.5,133.4 "
                   id="polygon819" />
                <path
                   style="fill:#231815"
                   inkscape:connector-curvature="0"
                   d="m 511.2,153.7 h -59.4 c -6.4,0 -11.1,1.2 -14,3.6 -3,2.4 -4.5,6.2 -4.5,11.4 0,4.1 1.3,7.3 3.8,9.3 2.5,2.1 6.3,3.1 11.4,3.1 h 31.8 c 13.2,0 22.5,2.5 28.1,7.5 5.6,5 8.4,13.3 8.4,24.9 0,11.8 -3.2,20.4 -9.6,25.9 -6.4,5.5 -16.5,8.3 -30.3,8.3 h -64 v -20.4 h 60.2 c 6.8,0 11.7,-1 14.5,-3 2.8,-2 4.2,-5.3 4.2,-9.9 0,-4.8 -1.3,-8.2 -3.8,-10.2 -2.6,-2 -7,-3 -13.2,-3 h -28.4 c -13.2,0 -22.8,-2.6 -28.9,-7.9 -6.1,-5.3 -9.1,-13.6 -9.1,-24.9 0,-12.1 3.2,-21 9.6,-26.6 6.4,-5.6 16.6,-8.4 30.5,-8.4 h 62.9 v 20.3 z"
                   id="path821" />
                <polygon
                   style="fill:#231815"
                   points="528.7,133.4 552.8,133.4 552.8,188.2 597.8,133.4 626.6,133.4 580.7,189.2 627.1,247.6 596.4,247.6 552.8,190.8 552.8,247.6 528.7,247.6 "
                   id="polygon823" />
                <path
                   style="fill:#231815"
                   inkscape:connector-curvature="0"
                   d="m 679.6,153.3 c -8.7,0 -15.3,2.2 -19.7,6.5 -4.4,4.4 -6.9,11 -7.3,20 l 66.5,0.1 v 19.9 h -66.6 c 0.1,10 2.2,17.1 6.3,21.5 4.1,4.4 11.1,6.5 20.9,6.5 h 39.4 v 19.9 h -40.6 c -9,0 -16,-0.8 -21.1,-2.3 -5.1,-1.5 -9.9,-4.1 -14.5,-7.7 -5.9,-4.7 -10.2,-10.7 -13.2,-18.2 -2.9,-7.5 -4.4,-16.4 -4.4,-26.9 0,-20.2 4.4,-35.1 13.1,-44.7 8.8,-9.6 22.3,-14.4 40.7,-14.4 H 719 v 19.9 h -39.4 z"
                   id="path825" />
                <polygon
                   style="fill:#231815"
                   points="763.6,133.4 810.4,215.5 809.2,133.4 833.8,133.4 833.8,247.6 805.9,247.6 756.7,161.2 757.8,247.6 733.2,247.6 733.2,133.4 "
                   id="polygon827" />
              </g>
              <g
                 id="g861">
                <path
                   style="fill:#231815"
                   inkscape:connector-curvature="0"
                   d="m 374.1,112.8 h -3.3 L 365.4,94 h 3.5 l 3.6,14.8 h 0.1 L 376.2,94 h 3.5 l 3.7,14.8 h 0.1 L 387.3,94 h 3.2 l -5.5,18.8 h -3.3 l -3.8,-14.6 h -0.1 z"
                   id="path831" />
                <path
                   style="fill:#231815"
                   inkscape:connector-curvature="0"
                   d="m 409.2,106.9 c -0.1,0.9 -1,3.6 -3.3,5.1 -0.9,0.6 -2.1,1.3 -5.1,1.3 -5.3,0 -8.4,-4 -8.4,-9.4 0,-5.8 2.8,-10.5 9,-10.5 5.4,0 8.1,4.3 8.1,11 h -13.8 c 0,3.9 1.8,6.2 5.5,6.2 3,0 4.8,-2.3 4.9,-3.7 z m -3,-5 c -0.2,-2.9 -1.4,-5.6 -5.3,-5.6 -2.9,0 -5.2,2.7 -5.2,5.6 z"
                   id="path833" />
                <path
                   style="fill:#231815"
                   inkscape:connector-curvature="0"
                   d="m 435,100.3 c -0.4,-2.5 -1.8,-4 -4.5,-4 -3.9,0 -5.2,3.7 -5.2,7.1 0,3.2 0.8,7.2 5.1,7.2 2.1,0 4,-1.6 4.5,-4.5 h 3.1 c -0.3,3 -2.2,7.2 -7.7,7.2 -5.3,0 -8.4,-4 -8.4,-9.4 0,-5.8 2.8,-10.5 9,-10.5 4.9,0 6.8,3.6 7.1,6.9 z"
                   id="path835" />
                <path
                   style="fill:#231815"
                   inkscape:connector-curvature="0"
                   d="m 444.9,112.8 h -3.2 V 94 h 3 v 3.1 h 0.1 c 1.3,-2.2 2.9,-3.7 5.3,-3.7 0.4,0 0.6,0 0.8,0.1 v 3.3 h -1.2 c -3,0 -4.8,2.3 -4.8,5 z"
                   id="path837" />
                <path
                   style="fill:#231815"
                   inkscape:connector-curvature="0"
                   d="m 469.2,106.9 c -0.1,0.9 -1,3.6 -3.3,5.1 -0.9,0.6 -2.1,1.3 -5.1,1.3 -5.3,0 -8.4,-4 -8.4,-9.4 0,-5.8 2.8,-10.5 9,-10.5 5.4,0 8.1,4.3 8.1,11 h -13.8 c 0,3.9 1.8,6.2 5.5,6.2 3,0 4.8,-2.3 4.9,-3.7 z m -3,-5 c -0.2,-2.9 -1.4,-5.6 -5.3,-5.6 -2.9,0 -5.2,2.7 -5.2,5.6 z"
                   id="path839" />
                <path
                   style="fill:#231815"
                   inkscape:connector-curvature="0"
                   d="m 473.2,99.7 c 0.1,-4.5 3.1,-6.3 7.8,-6.3 1.5,0 7,0.4 7,5.3 v 10.8 c 0,0.8 0.4,1.1 1,1.1 0.3,0 0.7,-0.1 1,-0.1 v 2.3 c -0.5,0.1 -1,0.4 -1.7,0.4 -2.8,0 -3.2,-1.4 -3.3,-2.9 -1.2,1.3 -3.1,3.1 -6.8,3.1 -3.5,0 -5.9,-2.2 -5.9,-5.4 0,-1.6 0.5,-5.3 5.7,-5.9 l 5.2,-0.6 c 0.8,-0.1 1.7,-0.4 1.7,-2.2 0,-2 -1.4,-3.1 -4.4,-3.1 -3.6,0 -4.1,2.2 -4.3,3.6 h -3 z m 11.6,3.5 c -0.5,0.4 -1.3,0.7 -5.2,1.2 -1.5,0.2 -4,0.7 -4,3.1 0,2.1 1,3.3 3.4,3.3 3,0 5.8,-1.9 5.8,-4.4 z"
                   id="path841" />
                <path
                   style="fill:#231815"
                   inkscape:connector-curvature="0"
                   d="m 497.2,96.6 v 12.2 c 0,1.5 1.3,1.5 1.9,1.5 h 1.1 v 2.5 c -1.2,0.1 -2.1,0.3 -2.4,0.3 -3.1,0 -3.8,-1.8 -3.8,-4 V 96.6 h -2.6 V 94 h 2.6 v -5.3 h 3.2 V 94 h 3 v 2.6 z"
                   id="path843" />
                <path
                   style="fill:#231815"
                   inkscape:connector-curvature="0"
                   d="m 519.3,106.9 c -0.1,0.9 -1,3.6 -3.3,5.1 -0.9,0.6 -2.1,1.3 -5.1,1.3 -5.3,0 -8.4,-4 -8.4,-9.4 0,-5.8 2.8,-10.5 9,-10.5 5.4,0 8.1,4.3 8.1,11 h -13.8 c 0,3.9 1.8,6.2 5.5,6.2 3,0 4.8,-2.3 4.9,-3.7 z m -3,-5 c -0.2,-2.9 -1.4,-5.6 -5.3,-5.6 -2.9,0 -5.2,2.7 -5.2,5.6 z"
                   id="path845" />
                <path
                   style="fill:#231815"
                   inkscape:connector-curvature="0"
                   d="m 537.2,96.6 v 12.2 c 0,1.5 1.3,1.5 1.9,1.5 h 1.1 v 2.5 c -1.2,0.1 -2.1,0.3 -2.4,0.3 -3.1,0 -3.8,-1.8 -3.8,-4 V 96.6 h -2.6 V 94 h 2.6 v -5.3 h 3.2 V 94 h 3 v 2.6 z"
                   id="path847" />
                <path
                   style="fill:#231815"
                   inkscape:connector-curvature="0"
                   d="m 558.7,112.8 h -3.2 v -12.3 c 0,-2.6 -0.7,-4.2 -3.7,-4.2 -2.6,0 -5.3,1.5 -5.3,6.3 v 10.3 h -3.2 V 87 h 3.2 v 9.5 h 0.1 c 0.9,-1.2 2.5,-3.1 5.5,-3.1 2.9,0 6.6,1.2 6.6,6.6 z"
                   id="path849" />
                <path
                   style="fill:#231815"
                   inkscape:connector-curvature="0"
                   d="m 579.3,106.9 c -0.1,0.9 -1,3.6 -3.3,5.1 -0.9,0.6 -2.1,1.3 -5.1,1.3 -5.3,0 -8.4,-4 -8.4,-9.4 0,-5.8 2.8,-10.5 9,-10.5 5.4,0 8.1,4.3 8.1,11 h -13.8 c 0,3.9 1.8,6.2 5.5,6.2 3,0 4.8,-2.3 4.9,-3.7 z m -3,-5 c -0.2,-2.9 -1.4,-5.6 -5.3,-5.6 -2.9,0 -5.2,2.7 -5.2,5.6 z"
                   id="path851" />
                <path
                   style="fill:#231815"
                   inkscape:connector-curvature="0"
                   d="m 608.7,112.8 h -3.2 v -11.6 c 0,-3.3 -0.9,-4.9 -4,-4.9 -1.8,0 -5,1.2 -5,6.3 v 10.3 h -3.2 V 94 h 3 v 2.7 h 0.1 c 0.7,-1 2.4,-3.2 5.7,-3.2 2.9,0 6.6,1.2 6.6,6.6 z"
                   id="path853" />
                <path
                   style="fill:#231815"
                   inkscape:connector-curvature="0"
                   d="m 629.4,106.9 c -0.1,0.9 -1,3.6 -3.3,5.1 -0.9,0.6 -2.1,1.3 -5.1,1.3 -5.3,0 -8.4,-4 -8.4,-9.4 0,-5.8 2.8,-10.5 9,-10.5 5.4,0 8.1,4.3 8.1,11 h -13.8 c 0,3.9 1.8,6.2 5.5,6.2 3,0 4.8,-2.3 4.9,-3.7 z m -3,-5 c -0.2,-2.9 -1.4,-5.6 -5.3,-5.6 -2.9,0 -5.2,2.7 -5.2,5.6 z"
                   id="path855" />
                <path
                   style="fill:#231815"
                   inkscape:connector-curvature="0"
                   d="m 648.7,112.8 h -4 l -4.7,-7.1 -4.5,7.1 h -4 l 6.6,-9.7 -6.3,-9.1 h 4.1 l 4.4,6.6 4.4,-6.6 h 3.9 l -6.4,9.1 z"
                   id="path857" />
                <path
                   style="fill:#231815"
                   inkscape:connector-curvature="0"
                   d="m 655.3,96.6 v 12.2 c 0,1.5 1.3,1.5 1.9,1.5 h 1.1 v 2.5 c -1.2,0.1 -2.1,0.3 -2.4,0.3 -3.1,0 -3.8,-1.8 -3.8,-4 V 96.6 h -2.6 V 94 h 2.6 v -5.3 h 3.2 V 94 h 3 v 2.6 z"
                   id="path859" />
              </g>
              <g
                 id="g931">
                <path
                   style="fill:#231815"
                   inkscape:connector-curvature="0"
                   d="m 249.7,270.1 h 16.8 v 2.5 h -7 v 18.2 h -2.8 v -18.2 h -7 z"
                   id="path863" />
                <path
                   style="fill:#231815"
                   inkscape:connector-curvature="0"
                   d="m 277.2,280 c 0,-0.9 -0.4,-2.5 -3.6,-2.5 -0.8,0 -3,0.3 -3,2.1 0,1.2 0.8,1.5 2.7,2 l 2.5,0.6 c 3.1,0.8 4.2,1.9 4.2,4 0,3.1 -2.6,5 -5.9,5 -5.9,0 -6.4,-3.4 -6.5,-5.3 h 2.4 c 0.1,1.2 0.4,3.1 4,3.1 1.8,0 3.4,-0.7 3.4,-2.4 0,-1.2 -0.8,-1.6 -3,-2.2 l -2.9,-0.7 c -2.1,-0.5 -3.5,-1.6 -3.5,-3.6 0,-3.3 2.7,-4.8 5.7,-4.8 5.4,0 5.7,4 5.7,4.7 z"
                   id="path865" />
                <path
                   style="fill:#231815"
                   inkscape:connector-curvature="0"
                   d="m 292.9,290.7 v -2.2 l -0.1,-0.1 c -1.1,1.8 -2.4,2.7 -4.8,2.7 -2.2,0 -4.9,-1.1 -4.9,-4.7 v -10.8 h 2.5 v 10 c 0,2.5 1.3,3.3 2.9,3.3 3.2,0 4.1,-2.8 4.1,-5 v -8.3 h 2.5 v 15 h -2.2 z"
                   id="path867" />
                <path
                   style="fill:#231815"
                   inkscape:connector-curvature="0"
                   d="m 308.4,275.7 h 2.8 c -1.8,4.9 -3.5,9.8 -5.4,14.7 -2.4,6.1 -2.6,6.4 -5.9,6.4 -0.4,0 -0.7,-0.1 -1.1,-0.2 v -2.3 c 0.3,0.1 0.8,0.3 1.5,0.3 1.3,0 1.5,-0.4 2.7,-3.5 l -5.6,-15.4 h 2.9 l 4,12.2 h 0.1 z"
                   id="path869" />
                <path
                   style="fill:#231815"
                   inkscape:connector-curvature="0"
                   d="m 313.3,280.2 c 0.1,-3.6 2.5,-5 6.2,-5 1.2,0 5.6,0.3 5.6,4.2 v 8.6 c 0,0.6 0.3,0.9 0.8,0.9 0.2,0 0.5,-0.1 0.8,-0.1 v 1.8 c -0.4,0.1 -0.8,0.3 -1.4,0.3 -2.2,0 -2.6,-1.1 -2.7,-2.3 -1,1.1 -2.5,2.4 -5.4,2.4 -2.8,0 -4.7,-1.8 -4.7,-4.3 0,-1.3 0.4,-4.2 4.6,-4.7 l 4.2,-0.5 c 0.6,-0.1 1.3,-0.3 1.3,-1.8 0,-1.6 -1.1,-2.4 -3.5,-2.4 -2.9,0 -3.3,1.8 -3.4,2.9 z m 9.3,2.8 c -0.4,0.3 -1,0.5 -4.2,0.9 -1.2,0.2 -3.2,0.5 -3.2,2.4 0,1.6 0.8,2.6 2.7,2.6 2.4,0 4.7,-1.5 4.7,-3.5 z"
                   id="path871" />
                <path
                   style="fill:#231815"
                   inkscape:connector-curvature="0"
                   d="m 329.4,275.7 h 2.4 v 2.1 h 0.1 c 0.5,-0.8 1.8,-2.6 4.5,-2.6 2.7,0 3.6,1.6 4,2.4 1.3,-1.4 2.3,-2.4 4.6,-2.4 1.6,0 4.7,0.8 4.7,5.1 v 10.4 h -2.5 V 281 c 0,-2.1 -0.6,-3.5 -2.8,-3.5 -2.1,0 -3.5,2 -3.5,4 v 9.2 h -2.5 v -10.4 c 0,-1.3 -0.5,-2.8 -2.4,-2.8 -1.4,0 -4,0.9 -4,5 v 8.2 h -2.5 v -15 z"
                   id="path873" />
                <path
                   style="fill:#231815"
                   inkscape:connector-curvature="0"
                   d="m 353.2,280.2 c 0.1,-3.6 2.5,-5 6.2,-5 1.2,0 5.6,0.3 5.6,4.2 v 8.6 c 0,0.6 0.3,0.9 0.8,0.9 0.2,0 0.5,-0.1 0.8,-0.1 v 1.8 c -0.4,0.1 -0.8,0.3 -1.4,0.3 -2.2,0 -2.6,-1.1 -2.7,-2.3 -1,1.1 -2.5,2.4 -5.4,2.4 -2.8,0 -4.7,-1.8 -4.7,-4.3 0,-1.3 0.4,-4.2 4.6,-4.7 l 4.2,-0.5 c 0.6,-0.1 1.3,-0.3 1.3,-1.8 0,-1.6 -1.1,-2.4 -3.5,-2.4 -2.9,0 -3.3,1.8 -3.4,2.9 z m 9.3,2.8 c -0.4,0.3 -1,0.5 -4.2,0.9 -1.2,0.2 -3.2,0.5 -3.2,2.4 0,1.6 0.8,2.6 2.7,2.6 2.4,0 4.7,-1.5 4.7,-3.5 z"
                   id="path875" />
                <path
                   style="fill:#231815"
                   inkscape:connector-curvature="0"
                   d="m 391.3,270.1 h 2.7 v 20.6 h -3.1 L 380.4,274 h -0.1 v 16.7 h -2.7 v -20.6 h 3.3 l 10.3,16.7 h 0.1 z"
                   id="path877" />
                <path
                   style="fill:#231815"
                   inkscape:connector-curvature="0"
                   d="m 398,280.2 c 0.1,-3.6 2.5,-5 6.2,-5 1.2,0 5.6,0.3 5.6,4.2 v 8.6 c 0,0.6 0.3,0.9 0.8,0.9 0.2,0 0.5,-0.1 0.8,-0.1 v 1.8 c -0.4,0.1 -0.8,0.3 -1.4,0.3 -2.2,0 -2.6,-1.1 -2.7,-2.3 -1,1.1 -2.5,2.4 -5.4,2.4 -2.8,0 -4.7,-1.8 -4.7,-4.3 0,-1.3 0.4,-4.2 4.6,-4.7 l 4.2,-0.5 c 0.6,-0.1 1.3,-0.3 1.3,-1.8 0,-1.6 -1.1,-2.4 -3.5,-2.4 -2.9,0 -3.3,1.8 -3.4,2.9 z m 9.2,2.8 c -0.4,0.3 -1,0.5 -4.2,0.9 -1.2,0.2 -3.2,0.5 -3.2,2.4 0,1.6 0.8,2.6 2.7,2.6 2.4,0 4.7,-1.5 4.7,-3.5 z"
                   id="path879" />
                <path
                   style="fill:#231815"
                   inkscape:connector-curvature="0"
                   d="m 417.1,277.8 v 9.8 c 0,1.2 1,1.2 1.5,1.2 h 0.9 v 2 c -0.9,0.1 -1.6,0.2 -1.9,0.2 -2.5,0 -3,-1.4 -3,-3.2 v -9.9 h -2 v -2.1 h 2 v -4.2 h 2.5 v 4.2 h 2.4 v 2.1 h -2.4 z"
                   id="path881" />
                <path
                   style="fill:#231815"
                   inkscape:connector-curvature="0"
                   d="M 422.1,272.9 V 270 h 2.5 v 2.9 z m 2.5,17.8 h -2.5 v -15 h 2.5 z"
                   id="path883" />
                <path
                   style="fill:#231815"
                   inkscape:connector-curvature="0"
                   d="m 434.5,275.2 c 4.8,0 7,4.1 7,7.9 0,3.9 -2.2,7.9 -7,7.9 -4.8,0 -7,-4.1 -7,-7.9 0,-3.8 2.2,-7.9 7,-7.9 z m 0,13.7 c 3.6,0 4.4,-3.7 4.4,-5.7 0,-2 -0.7,-5.7 -4.4,-5.7 -3.6,0 -4.4,3.7 -4.4,5.7 0,2 0.8,5.7 4.4,5.7 z"
                   id="path885" />
                <path
                   style="fill:#231815"
                   inkscape:connector-curvature="0"
                   d="m 456.6,290.7 h -2.5 v -9.3 c 0,-2.6 -0.7,-3.9 -3.2,-3.9 -1.4,0 -4,0.9 -4,5 v 8.2 h -2.5 v -15 h 2.4 v 2.1 h 0.1 c 0.5,-0.8 2,-2.6 4.5,-2.6 2.3,0 5.3,0.9 5.3,5.2 v 10.3 z"
                   id="path887" />
                <path
                   style="fill:#231815"
                   inkscape:connector-curvature="0"
                   d="m 460.3,280.2 c 0.1,-3.6 2.5,-5 6.2,-5 1.2,0 5.6,0.3 5.6,4.2 v 8.6 c 0,0.6 0.3,0.9 0.8,0.9 0.2,0 0.5,-0.1 0.8,-0.1 v 1.8 c -0.4,0.1 -0.8,0.3 -1.4,0.3 -2.2,0 -2.6,-1.1 -2.7,-2.3 -1,1.1 -2.5,2.4 -5.4,2.4 -2.8,0 -4.7,-1.8 -4.7,-4.3 0,-1.3 0.4,-4.2 4.6,-4.7 l 4.2,-0.5 c 0.6,-0.1 1.3,-0.3 1.3,-1.8 0,-1.6 -1.1,-2.4 -3.5,-2.4 -2.9,0 -3.3,1.8 -3.4,2.9 z m 9.2,2.8 c -0.4,0.3 -1,0.5 -4.2,0.9 -1.2,0.2 -3.2,0.5 -3.2,2.4 0,1.6 0.8,2.6 2.7,2.6 2.4,0 4.7,-1.5 4.7,-3.5 z"
                   id="path889" />
                <path
                   style="fill:#231815"
                   inkscape:connector-curvature="0"
                   d="m 478.9,290.7 h -2.5 v -20.6 h 2.5 z"
                   id="path891" />
                <path
                   style="fill:#231815"
                   inkscape:connector-curvature="0"
                   d="m 505.5,276.3 c -0.8,-3.6 -3.8,-4.3 -5.8,-4.3 -3.7,0 -6.8,2.8 -6.8,8.2 0,4.9 1.7,8.6 6.8,8.6 1.8,0 4.9,-0.9 5.9,-5.7 h 2.7 c -1.1,7.8 -7.5,8.1 -9,8.1 -4.7,0 -9.3,-3 -9.3,-11 0,-6.3 3.6,-10.7 9.6,-10.7 5.3,0 8.1,3.3 8.5,6.8 z"
                   id="path893" />
                <path
                   style="fill:#231815"
                   inkscape:connector-curvature="0"
                   d="m 517.6,275.2 c 4.8,0 7,4.1 7,7.9 0,3.9 -2.2,7.9 -7,7.9 -4.8,0 -7,-4.1 -7,-7.9 0,-3.8 2.2,-7.9 7,-7.9 z m 0,13.7 c 3.6,0 4.4,-3.7 4.4,-5.7 0,-2 -0.7,-5.7 -4.4,-5.7 -3.7,0 -4.4,3.7 -4.4,5.7 0,2 0.7,5.7 4.4,5.7 z"
                   id="path895" />
                <path
                   style="fill:#231815"
                   inkscape:connector-curvature="0"
                   d="m 530,290.7 h -2.5 v -20.6 h 2.5 z"
                   id="path897" />
                <path
                   style="fill:#231815"
                   inkscape:connector-curvature="0"
                   d="m 536.4,290.7 h -2.5 v -20.6 h 2.5 z"
                   id="path899" />
                <path
                   style="fill:#231815"
                   inkscape:connector-curvature="0"
                   d="m 552.9,286 c -0.1,0.7 -0.8,2.8 -2.7,4.1 -0.7,0.5 -1.7,1 -4.1,1 -4.2,0 -6.7,-3.2 -6.7,-7.5 0,-4.7 2.2,-8.4 7.2,-8.4 4.3,0 6.5,3.4 6.5,8.8 h -11 c 0,3.1 1.5,4.9 4.4,4.9 2.4,0 3.8,-1.8 3.9,-3 h 2.5 z m -2.4,-4 c -0.1,-2.3 -1.1,-4.5 -4.2,-4.5 -2.3,0 -4.2,2.2 -4.2,4.5 z"
                   id="path901" />
                <path
                   style="fill:#231815"
                   inkscape:connector-curvature="0"
                   d="m 568.6,289.5 c 0,2.2 0,7.6 -7,7.6 -1.8,0 -5.3,-0.5 -5.7,-4.5 h 2.5 c 0.5,2.4 2.8,2.4 3.4,2.4 4.4,0 4.3,-3.5 4.3,-5.3 V 289 H 566 v 0.1 c -0.7,1.1 -2,2 -4,2 -5.1,0 -6.6,-4.8 -6.6,-8.4 0,-4.2 2.3,-7.5 6.3,-7.5 2.7,0 3.9,1.7 4.5,2.6 h 0.1 v -2.1 h 2.4 v 13.8 z m -6.5,-0.6 c 1.6,0 4.1,-1.1 4.1,-5.1 0,-2.4 -0.4,-6.4 -4.1,-6.4 -3.9,0 -4.1,3.7 -4.1,5.6 0,3.4 1.3,5.9 4.1,5.9 z"
                   id="path903" />
                <path
                   style="fill:#231815"
                   inkscape:connector-curvature="0"
                   d="m 584.9,286 c -0.1,0.7 -0.8,2.8 -2.7,4.1 -0.7,0.5 -1.7,1 -4.1,1 -4.2,0 -6.7,-3.2 -6.7,-7.5 0,-4.7 2.2,-8.4 7.2,-8.4 4.3,0 6.5,3.4 6.5,8.8 h -11 c 0,3.1 1.5,4.9 4.4,4.9 2.4,0 3.8,-1.8 3.9,-3 h 2.5 z m -2.4,-4 c -0.1,-2.3 -1.1,-4.5 -4.2,-4.5 -2.3,0 -4.2,2.2 -4.2,4.5 z"
                   id="path905" />
                <path
                   style="fill:#231815"
                   inkscape:connector-curvature="0"
                   d="m 602.2,275.2 c 4.8,0 7,4.1 7,7.9 0,3.9 -2.2,7.9 -7,7.9 -4.8,0 -7,-4.1 -7,-7.9 0,-3.8 2.2,-7.9 7,-7.9 z m 0,13.7 c 3.6,0 4.4,-3.7 4.4,-5.7 0,-2 -0.7,-5.7 -4.4,-5.7 -3.6,0 -4.4,3.7 -4.4,5.7 0,2 0.8,5.7 4.4,5.7 z"
                   id="path907" />
                <path
                   style="fill:#231815"
                   inkscape:connector-curvature="0"
                   d="m 615.2,277.8 v 12.9 h -2.5 v -12.9 h -2.1 v -2.1 h 2.1 v -2.6 c 0,-2.3 1.4,-3.3 3.9,-3.3 0.4,0 0.7,0 1.1,0.1 v 2.3 c -0.3,0 -0.7,-0.1 -1,-0.1 -1.1,0 -1.5,0.5 -1.5,1.8 v 1.9 h 2.5 v 2.1 h -2.5 z"
                   id="path909" />
                <path
                   style="fill:#231815"
                   inkscape:connector-curvature="0"
                   d="m 626.6,270.1 h 16.8 v 2.5 h -7 v 18.2 h -2.8 v -18.2 h -7 z"
                   id="path911" />
                <path
                   style="fill:#231815"
                   inkscape:connector-curvature="0"
                   d="m 658.4,286 c -0.1,0.7 -0.8,2.8 -2.7,4.1 -0.7,0.5 -1.7,1 -4.1,1 -4.2,0 -6.7,-3.2 -6.7,-7.5 0,-4.7 2.2,-8.4 7.2,-8.4 4.3,0 6.5,3.4 6.5,8.8 h -11 c 0,3.1 1.5,4.9 4.4,4.9 2.4,0 3.8,-1.8 3.9,-3 h 2.5 z m -2.4,-4 c -0.1,-2.3 -1.1,-4.5 -4.2,-4.5 -2.3,0 -4.2,2.2 -4.2,4.5 z"
                   id="path913" />
                <path
                   style="fill:#231815"
                   inkscape:connector-curvature="0"
                   d="m 671,280.7 c -0.3,-2 -1.4,-3.2 -3.6,-3.2 -3.1,0 -4.1,3 -4.1,5.7 0,2.6 0.6,5.8 4.1,5.8 1.7,0 3.2,-1.3 3.6,-3.6 h 2.4 c -0.3,2.4 -1.7,5.7 -6.1,5.7 -4.2,0 -6.7,-3.2 -6.7,-7.5 0,-4.7 2.2,-8.4 7.2,-8.4 3.9,0 5.4,2.9 5.6,5.5 z"
                   id="path915" />
                <path
                   style="fill:#231815"
                   inkscape:connector-curvature="0"
                   d="m 688.2,290.7 h -2.5 v -9.8 c 0,-2 -0.6,-3.4 -3,-3.4 -2.1,0 -4.2,1.2 -4.2,5 v 8.2 H 676 v -20.6 h 2.5 v 7.6 h 0.1 c 0.7,-0.9 2,-2.4 4.4,-2.4 2.3,0 5.3,0.9 5.3,5.2 v 10.2 z"
                   id="path917" />
                <path
                   style="fill:#231815"
                   inkscape:connector-curvature="0"
                   d="m 704.2,290.7 h -2.5 v -9.3 c 0,-2.6 -0.7,-3.9 -3.2,-3.9 -1.4,0 -4,0.9 -4,5 v 8.2 H 692 v -15 h 2.4 v 2.1 h 0.1 c 0.5,-0.8 2,-2.6 4.5,-2.6 2.3,0 5.3,0.9 5.3,5.2 v 10.3 z"
                   id="path919" />
                <path
                   style="fill:#231815"
                   inkscape:connector-curvature="0"
                   d="m 714,275.2 c 4.8,0 7,4.1 7,7.9 0,3.9 -2.2,7.9 -7,7.9 -4.8,0 -7,-4.1 -7,-7.9 0,-3.8 2.2,-7.9 7,-7.9 z m 0,13.7 c 3.6,0 4.4,-3.7 4.4,-5.7 0,-2 -0.7,-5.7 -4.4,-5.7 -3.6,0 -4.4,3.7 -4.4,5.7 0.1,2 0.8,5.7 4.4,5.7 z"
                   id="path921" />
                <path
                   style="fill:#231815"
                   inkscape:connector-curvature="0"
                   d="M 726.5,290.7 H 724 v -20.6 h 2.5 z"
                   id="path923" />
                <path
                   style="fill:#231815"
                   inkscape:connector-curvature="0"
                   d="m 736.4,275.2 c 4.8,0 7,4.1 7,7.9 0,3.9 -2.2,7.9 -7,7.9 -4.8,0 -7,-4.1 -7,-7.9 0,-3.8 2.2,-7.9 7,-7.9 z m 0,13.7 c 3.6,0 4.4,-3.7 4.4,-5.7 0,-2 -0.7,-5.7 -4.4,-5.7 -3.6,0 -4.4,3.7 -4.4,5.7 0,2 0.8,5.7 4.4,5.7 z"
                   id="path925" />
                <path
                   style="fill:#231815"
                   inkscape:connector-curvature="0"
                   d="m 758.7,289.5 c 0,2.2 0,7.6 -7,7.6 -1.8,0 -5.3,-0.5 -5.7,-4.5 h 2.5 c 0.5,2.4 2.8,2.4 3.4,2.4 4.4,0 4.3,-3.5 4.3,-5.3 V 289 h -0.1 v 0.1 c -0.7,1.1 -2,2 -4,2 -5.1,0 -6.6,-4.8 -6.6,-8.4 0,-4.2 2.3,-7.5 6.3,-7.5 2.7,0 3.9,1.7 4.5,2.6 h 0.1 v -2.1 h 2.4 v 13.8 z m -6.5,-0.6 c 1.6,0 4.1,-1.1 4.1,-5.1 0,-2.4 -0.4,-6.4 -4.1,-6.4 -3.9,0 -4.1,3.7 -4.1,5.6 0,3.4 1.3,5.9 4.1,5.9 z"
                   id="path927" />
                <path
                   style="fill:#231815"
                   inkscape:connector-curvature="0"
                   d="m 771.6,275.7 h 2.8 c -1.8,4.9 -3.5,9.8 -5.4,14.7 -2.4,6.1 -2.6,6.4 -5.9,6.4 -0.4,0 -0.7,-0.1 -1.1,-0.2 v -2.3 c 0.3,0.1 0.8,0.3 1.5,0.3 1.3,0 1.5,-0.4 2.7,-3.5 l -5.6,-15.4 h 2.9 l 4,12.2 h 0.1 z"
                   id="path929" />
              </g>
            </g>
          </g>
        </g>
      </g>
    </g>
  </g>
</svg>
